<?xml version="1.0" standalone="no"?>
<!DOCTYPE svg PUBLIC "-//W3C//DTD SVG 20010904//EN"
 "http://www.w3.org/TR/2001/REC-SVG-20010904/DTD/svg10.dtd">
<svg version="1.0" xmlns="http://www.w3.org/2000/svg"
 width="1200.000000pt" height="675.000000pt" viewBox="0 0 1200.000000 675.000000"
 preserveAspectRatio="xMidYMid meet">

<g transform="translate(0.000000,675.000000) scale(0.100000,-0.100000)"
fill="#000000" stroke="none">
<path d="M0 4350 l0 -2400 69 0 c62 0 70 -2 85 -25 14 -21 24 -25 62 -25 38 0
45 3 40 16 -3 9 -6 18 -6 20 0 2 -12 5 -27 6 -104 8 536 14 1552 13 655 0
1201 4 1215 9 22 7 23 7 8 -5 -16 -13 -18 -46 -20 -399 -2 -212 -6 -384 -10
-382 -5 1 -485 2 -1068 2 l-1060 0 0 360 c0 233 -4 360 -10 360 -6 0 -10 -127
-10 -360 l0 -360 -367 0 c-201 0 -364 2 -362 4 2 3 28 6 57 7 29 2 55 7 58 11
3 5 12 4 20 -3 11 -9 14 -9 14 1 0 8 4 9 13 3 14 -11 37 -11 37 0 0 4 0 12 0
19 0 6 -7 3 -15 -8 -17 -22 -20 -12 -4 18 6 12 7 18 1 14 -5 -3 -13 1 -16 10
-5 13 -9 14 -21 4 -8 -7 -15 -9 -15 -4 0 5 -5 2 -11 -6 -8 -11 -9 -9 -3 10 6
22 5 23 -9 12 -13 -11 -17 -10 -27 8 -6 11 -15 18 -19 16 -4 -3 -8 0 -8 7 0 7
-4 21 -7 32 -4 11 0 7 9 -8 9 -16 21 -25 27 -21 7 5 8 2 3 -6 -5 -9 -4 -11 3
-6 8 5 10 1 6 -11 -5 -17 -5 -17 6 0 6 9 17 14 23 11 7 -4 8 -3 4 2 -5 5 -14
9 -20 9 -7 1 -11 7 -9 15 3 11 0 11 -12 0 -19 -15 -21 0 -3 20 9 11 8 11 -7 0
-18 -13 -19 -13 -14 1 4 10 0 16 -10 16 -24 0 -33 -18 -19 -37 10 -13 10 -13
-5 -2 -10 8 -14 20 -11 29 4 10 2 14 -3 10 -6 -3 -11 13 -13 39 -1 34 1 44 10
38 8 -5 9 -3 4 5 -10 17 -24 1 -27 -32 -2 -24 -4 -25 -20 -10 -10 8 -15 20
-12 24 8 14 -6 50 -17 43 -6 -3 -5 -12 3 -22 12 -15 11 -16 -5 -3 -13 10 -14
17 -6 27 7 9 7 19 -1 34 -6 12 -9 24 -7 27 8 8 48 -90 43 -104 -3 -7 -1 -15 4
-18 6 -4 11 4 11 17 1 13 3 33 4 46 2 18 0 20 -11 11 -16 -14 -19 2 -3 18 10
10 -2 25 -23 29 -5 1 -11 2 -14 3 -4 0 -1 7 5 15 9 10 7 17 -6 27 -16 12 -17
12 -5 -2 10 -13 10 -19 -2 -28 -12 -10 -15 -91 -16 -512 l-1 -499 36 2 c19 2
35 6 35 9 0 4 114 8 253 9 138 1 266 3 282 5 17 2 235 6 485 10 538 8 592 10
618 24 11 6 21 9 23 6 5 -4 440 11 574 19 44 3 186 8 316 11 130 3 247 8 260
11 13 2 45 7 71 11 l47 6 3 -69 3 -69 50 0 50 0 3 67 3 67 77 3 c76 3 77 3 80
31 l3 28 1907 -3 c1049 -2 1933 -1 1965 1 33 2 53 7 46 12 -7 4 -16 6 -20 3
-4 -2 -10 0 -14 5 -3 6 4 8 15 6 14 -3 20 0 17 8 -3 7 -10 11 -16 9 -7 -1 -10
2 -7 7 3 5 19 7 36 6 16 -1 30 2 30 7 0 5 5 6 10 3 6 -3 10 0 10 7 0 10 2 10
9 -1 7 -11 10 -11 16 0 6 9 10 8 16 -7 7 -18 8 -18 8 0 1 16 3 17 18 5 11 -9
14 -10 9 -2 -5 9 6 12 41 12 26 -1 64 0 83 1 28 1 31 3 15 9 -17 7 -15 9 12
13 28 4 31 2 20 -11 -6 -9 -1 -7 12 4 24 21 27 21 50 2 12 -9 13 -9 7 1 -8 13
6 17 18 5 10 -11 37 -12 30 -2 -8 13 10 11 25 -3 8 -7 11 -8 8 -3 -5 10 -3 10
356 14 170 2 198 5 193 17 -3 8 -1 12 4 9 5 -3 18 8 28 24 10 17 22 28 25 24
4 -3 7 -1 7 5 0 7 7 12 16 12 14 0 15 2 3 17 -10 11 -10 14 -1 9 7 -4 12 -2
12 4 0 6 5 8 10 5 6 -3 10 -1 10 5 0 6 5 8 10 5 6 -3 10 2 10 12 0 15 2 16 10
3 8 -12 10 -12 10 5 0 15 2 17 9 6 6 -9 10 -10 12 -2 5 15 41 21 56 9 7 -5 14
-5 17 1 14 22 52 -3 47 -31 0 -5 4 -8 10 -8 7 0 10 12 7 30 l-5 31 34 -33 34
-33 -3 -117 -3 -117 225 -3 c754 -11 1631 -7 1885 7 149 8 288 17 310 20 22 3
132 9 245 15 113 5 279 14 370 20 91 5 218 13 283 16 l117 6 0 2616 c0 2591 0
2617 -20 2650 -11 17 -21 32 -23 32 -2 0 -4 -21 -6 -47 -4 -81 -11 -61 -11 31
0 56 -4 85 -10 81 -5 -3 -11 -48 -11 -98 -1 -51 -4 -81 -6 -68 -5 24 -30 57
-38 49 -3 -2 -9 -22 -14 -44 l-9 -39 -2 45 c-1 25 -4 36 -7 25 -3 -11 -10 -24
-15 -30 -7 -7 -9 -3 -5 13 3 15 0 25 -9 29 -8 3 -11 9 -8 14 3 5 3 9 -1 9 -3
0 -10 -12 -15 -26 -11 -27 -30 -24 -29 4 0 14 2 13 9 -3 7 -16 9 -17 9 -3 1
23 -18 33 -25 14 -3 -9 -10 -13 -15 -10 -5 3 -7 10 -4 15 4 5 4 9 1 9 -3 0
-10 -10 -17 -21 -9 -17 -8 -20 2 -14 8 6 10 4 5 -4 -5 -7 -14 -10 -21 -7 -7 2
-17 0 -22 -5 -7 -7 -12 -5 -17 6 -3 10 -2 14 5 9 6 -3 0 10 -12 29 -26 39 -53
37 -56 -3 -4 -56 -33 -32 -34 28 -1 26 -5 61 -9 77 -6 23 -8 12 -9 -42 -1 -44
-5 -73 -12 -73 -5 0 -7 6 -3 13 4 6 4 9 -1 5 -4 -4 -14 -3 -21 3 -8 7 -14 6
-20 -2 -4 -7 -3 -9 3 -6 6 4 13 0 17 -8 3 -8 1 -15 -4 -15 -6 0 -9 -3 -8 -7 0
-5 -3 -19 -9 -32 -11 -27 -22 -17 -25 23 -2 24 -13 31 -45 27 -8 -1 -13 10
-13 30 0 30 -1 31 -13 14 -8 -10 -19 -15 -25 -11 -6 3 -14 1 -17 -5 -4 -5 -14
-8 -22 -5 -11 5 -13 2 -9 -10 5 -14 4 -15 -9 -4 -13 11 -15 7 -16 -26 l-2 -39
-7 35 -7 35 -8 -43 c-6 -35 -10 -40 -22 -30 -8 6 -12 20 -10 30 3 10 1 15 -4
12 -6 -3 -16 0 -25 6 -11 10 -12 16 -2 27 9 11 8 13 -3 11 -10 -2 -16 10 -20
42 l-6 45 -2 -60 c-2 -46 -5 -54 -11 -35 -6 19 -8 20 -9 6 -1 -15 -4 -16 -16
-6 -9 7 -18 10 -22 6 -3 -3 -14 1 -24 10 -16 15 -17 14 -13 -8 l5 -23 -12 22
-12 23 -18 -21 c-11 -13 -23 -18 -31 -13 -9 5 -8 1 2 -11 8 -10 10 -16 3 -12
-7 5 -13 -1 -16 -15 -4 -21 -4 -20 -6 3 0 17 -11 33 -27 44 -18 11 -24 12 -18
4 6 -10 3 -10 -11 1 -17 14 -18 13 -13 -7 4 -16 2 -23 -7 -23 -9 0 -12 8 -10
23 4 22 4 22 -11 2 -14 -19 -15 -19 -21 3 -5 21 -6 21 -18 5 -11 -15 -14 -15
-28 -1 -9 8 -17 35 -20 59 -3 39 -4 38 -6 -16 -1 -33 -5 -54 -8 -46 -4 10 -9
8 -18 -10 -13 -23 -13 -23 -21 16 l-8 40 -12 -40 c-12 -37 -13 -38 -20 -16 -7
23 -8 23 -21 5 -13 -18 -14 -18 -20 4 -4 18 -8 20 -14 10 -7 -10 -9 -8 -9 6 0
14 -6 17 -25 14 -21 -4 -23 -3 -14 9 10 11 8 12 -6 7 -14 -6 -16 -4 -11 7 4 8
-6 -1 -21 -18 l-29 -33 -13 37 -14 37 -18 -23 c-11 -13 -19 -34 -19 -48 0 -14
-4 -22 -10 -18 -6 4 -8 11 -5 16 4 5 2 9 -4 9 -5 0 -12 -12 -14 -27 -2 -16 -5
6 -6 47 -3 87 -5 84 -25 -25 l-14 -80 -1 173 -1 172 795 0 795 0 0 205 0 205
-6000 0 -6000 0 0 -2400z m11694 1635 c-4 -8 -11 -15 -16 -15 -6 0 -5 6 2 15
7 8 14 15 16 15 2 0 1 -7 -2 -15z m-9430 -1307 c-4 -7 -16 -23 -27 -35 -11
-13 -16 -23 -12 -23 5 0 -1 -7 -13 -16 -22 -15 -29 -38 -14 -47 4 -2 2 -2 -5
-1 -24 6 -26 -37 -2 -62 24 -26 15 -32 -15 -9 -32 24 -14 92 41 154 45 50 61
63 47 39z m-428 -36 c-18 -16 -18 -16 -6 6 6 13 14 21 18 18 3 -4 -2 -14 -12
-24z m49 -22 c-11 -5 -28 -11 -38 -14 -10 -3 -16 -10 -12 -15 3 -5 -6 -21 -20
-35 -16 -16 -25 -20 -25 -11 0 7 5 15 11 17 6 2 12 16 12 31 1 15 7 26 12 23
6 -2 19 0 30 5 28 11 56 10 30 -1z m-115 -14 c0 -2 -7 -7 -16 -10 -8 -3 -12
-2 -9 4 6 10 25 14 25 6z m147 -22 c-3 -3 -12 -4 -19 -1 -8 3 -5 6 6 6 11 1
17 -2 13 -5z m249 -114 c7 -7 14 -17 14 -23 0 -5 -9 -2 -20 8 -11 10 -20 14
-20 8 0 -5 -11 -15 -23 -22 -21 -11 -23 -17 -17 -52 8 -40 -2 -52 -19 -22 -8
15 -13 15 -38 4 -27 -12 -26 -11 10 26 43 45 45 51 15 62 -16 6 -24 5 -28 -5
-3 -8 -9 -4 -17 13 -12 25 -11 25 18 19 17 -3 28 -2 24 3 -3 5 4 7 16 4 16 -4
17 -8 7 -14 -9 -6 -9 -9 -1 -9 7 0 17 8 23 18 9 15 10 15 8 0 -2 -9 2 -16 7
-15 6 1 9 13 8 27 -1 14 1 36 5 50 5 20 7 15 10 -22 2 -25 10 -52 18 -58z
m-461 44 c18 -44 18 -41 -1 -48 -13 -5 -14 -3 -6 6 7 9 6 20 -3 38 -15 26 -18
40 -10 40 3 0 12 -16 20 -36z m55 -18 c0 -12 -5 -7 -19 24 -11 24 -11 24 3 6
9 -11 16 -24 16 -30z m137 2 c-3 -8 -6 -5 -6 6 -1 11 2 17 5 13 3 -3 4 -12 1
-19z m413 -33 c-7 -9 -15 -13 -17 -11 -7 7 7 26 19 26 6 0 6 -6 -2 -15z m-550
2 c0 -2 -12 -14 -27 -28 l-28 -24 24 28 c23 25 31 32 31 24z m591 -59 c5 16
99 28 99 13 0 -6 -11 -12 -25 -12 -14 -1 -29 -3 -35 -4 -5 -1 -16 -3 -24 -4
-7 0 -19 -21 -26 -46 -14 -50 -35 -75 -24 -28 4 15 11 36 16 46 7 13 5 24 -6
36 -9 10 -16 22 -16 27 0 5 9 -2 19 -15 10 -13 20 -19 22 -13z m-765 2 c7 0
14 -6 17 -14 5 -12 0 -13 -26 -4 -41 14 -62 33 -27 24 14 -3 30 -6 36 -6z
m541 -32 c-3 -7 -5 -2 -5 12 0 14 2 19 5 13 2 -7 2 -19 0 -25z m-297 13 c0
-19 -12 -41 -23 -41 -7 0 -7 4 1 12 15 15 16 31 0 22 -7 -4 -8 -3 -4 4 9 14
26 16 26 3z m-124 -20 c-13 -15 -14 -20 -4 -24 9 -4 9 -6 1 -6 -20 -2 -24 17
-7 33 22 23 31 20 10 -3z m297 -11 c8 -11 17 -17 20 -13 4 3 7 2 7 -4 0 -5
-10 -18 -22 -29 -18 -16 -21 -17 -15 -2 3 10 -3 28 -14 42 -17 21 -18 26 -5
26 8 0 21 -9 29 -20z m-322 -33 c5 2 6 -5 3 -15 -4 -11 4 -7 20 11 14 15 26
23 26 18 0 -6 -14 -25 -31 -43 -17 -18 -29 -26 -26 -17 3 9 -6 34 -19 55 -22
33 -22 35 -3 14 12 -14 25 -24 30 -23z m-51 19 c0 -2 -8 -10 -17 -17 -16 -13
-17 -12 -4 4 13 16 21 21 21 13z m-440 -10 c0 -2 -7 -7 -16 -10 -8 -3 -12 -2
-9 4 6 10 25 14 25 6z m650 -6 c0 -5 -5 -10 -11 -10 -5 0 -7 5 -4 10 3 6 8 10
11 10 2 0 4 -4 4 -10z m358 -14 c8 -19 16 -23 34 -19 18 4 20 3 8 -6 -18 -12
-15 -64 7 -100 15 -26 15 -26 -4 -5 -10 11 -24 19 -31 18 -7 -1 -8 0 -2 3 16
8 12 35 -15 86 -14 26 -22 47 -17 47 5 0 14 -11 20 -24z m209 -8 c-3 -8 -6 -5
-6 6 -1 11 2 17 5 13 3 -3 4 -12 1 -19z m-437 2 c-8 -5 -11 -12 -7 -16 4 -4 2
-13 -4 -21 -18 -21 1 -15 35 10 41 31 68 45 36 18 -25 -20 -25 -20 -7 -50 22
-38 6 -41 -22 -5 -18 23 -22 24 -27 10 -4 -11 4 -28 22 -48 l29 -31 -32 23
c-18 13 -33 27 -33 32 0 13 -28 9 -63 -7 -30 -15 -31 -15 -12 0 11 9 19 21 17
27 -1 5 7 12 18 15 19 5 24 14 21 41 -1 6 8 12 21 12 18 0 20 -2 8 -10z m-269
-53 c23 4 30 3 25 -5 -4 -7 -15 -12 -25 -12 -9 0 -22 -5 -29 -10 -6 -6 -10 -7
-7 -4 2 4 -4 19 -15 34 -11 16 -20 34 -20 42 0 7 9 -2 20 -19 17 -29 23 -32
51 -26z m169 22 c0 -6 -4 -7 -10 -4 -5 3 -10 11 -10 16 0 6 5 7 10 4 6 -3 10
-11 10 -16z m-737 -71 c-3 -26 -9 -45 -14 -42 -5 3 -9 1 -9 -5 0 -5 5 -13 10
-16 6 -3 10 -15 10 -26 0 -10 -4 -19 -10 -19 -5 0 -10 9 -10 20 0 31 -18 24
-25 -10 -4 -16 -11 -30 -15 -30 -5 0 -6 7 -3 17 4 11 3 14 -5 9 -7 -4 -10 -17
-6 -32 5 -19 3 -23 -10 -18 -9 3 -16 12 -16 20 0 8 -11 14 -27 15 l-28 0 24
10 c14 5 30 8 38 5 7 -3 15 -1 18 5 4 5 10 7 14 4 8 -5 31 59 32 91 0 18 1 18
9 -1 8 -19 9 -19 9 2 1 23 11 56 16 51 2 -2 1 -24 -2 -50z m501 -43 l6 -30
-11 30 c-6 17 -19 39 -27 50 l-16 20 21 -20 c12 -11 24 -33 27 -50z m310 50
c-7 -17 -20 -20 -28 -6 -7 10 3 21 20 21 8 0 11 -6 8 -15z m-603 -22 c13 -16
12 -17 -3 -4 -10 7 -18 15 -18 17 0 8 8 3 21 -13z m539 -13 c-6 -11 -13 -20
-16 -20 -2 0 0 9 6 20 6 11 13 20 16 20 2 0 0 -9 -6 -20z m6685 -1590 c4 -883
9 -1612 11 -1620 3 -8 -11 1 -31 21 l-36 35 0 930 c0 1021 8 1904 18 1974 3
25 6 50 6 57 0 7 4 10 9 7 4 -3 8 43 8 102 0 59 2 105 4 103 3 -3 8 -727 11
-1609z m-6625 1560 c-4 -23 -11 -44 -15 -48 -4 -4 -5 4 -2 18 4 14 7 35 7 48
0 12 4 22 9 22 4 0 5 -18 1 -40z m-640 10 c-8 -5 -22 -9 -30 -9 -10 0 -8 3 5
9 27 12 43 12 25 0z m228 -9 c3 -8 -1 -12 -9 -9 -7 2 -15 10 -17 17 -3 8 1 12
9 9 7 -2 15 -10 17 -17z m212 9 c12 -8 11 -10 -7 -10 -12 0 -25 5 -28 10 -8
13 15 13 35 0z m-790 -40 c-12 -16 -25 -30 -29 -30 -4 0 -17 -9 -30 -21 -21
-20 -21 -22 -4 -34 15 -11 21 -11 35 2 10 9 15 19 13 23 -7 12 29 7 37 -5 12
-16 9 -28 -4 -18 -9 6 -20 2 -34 -13 -30 -31 -16 -48 30 -40 21 4 36 3 36 -2
0 -14 -31 -25 -58 -23 -20 2 -22 -1 -16 -26 6 -25 5 -26 -8 -15 -14 11 -18 10
-30 -5 -7 -10 -22 -25 -33 -33 -11 -8 -5 3 13 26 30 40 39 74 26 107 -7 20
-42 10 -55 -15 -15 -28 -23 -15 -9 14 9 19 128 137 138 138 2 0 -6 -13 -18
-30z m-199 -33 c10 -18 6 -17 -20 7 -36 34 -39 41 -11 26 11 -6 25 -20 31 -33z
m623 34 c3 -4 -6 -6 -19 -3 -14 2 -25 6 -25 8 0 8 39 4 44 -5z m278 -21 c-2
-17 -9 -33 -15 -37 -6 -4 -8 2 -4 18 4 13 7 30 7 37 0 6 4 12 8 12 5 0 7 -14
4 -30z m156 5 c-3 -3 -9 2 -12 12 -6 14 -5 15 5 6 7 -7 10 -15 7 -18z m182
-22 c0 -35 -3 -44 -11 -36 -7 7 -9 25 -5 47 9 50 16 45 16 -11z m-1176 22 c10
-8 22 -12 26 -10 4 2 7 -2 7 -10 0 -20 -7 -19 -42 10 -32 26 -24 35 9 10z
m366 -6 c0 -5 -7 -9 -15 -9 -8 0 -15 7 -15 15 0 9 6 12 15 9 8 -4 15 -10 15
-15z m300 6 c0 -2 -10 -10 -22 -16 -21 -11 -22 -11 -9 4 13 16 31 23 31 12z
m43 -12 c-4 -10 -9 -11 -19 -2 -19 15 -18 18 5 16 11 -1 17 -6 14 -14z m5964
-506 c-1 -89 -3 -13 -3 168 0 182 2 254 3 162 2 -93 2 -241 0 -330z m143 151
c0 -266 -3 -339 -12 -330 -7 7 -20 12 -30 12 -17 0 -18 17 -16 313 2 288 3
294 5 82 2 -132 8 -234 13 -239 6 -6 10 -17 10 -25 0 -14 -1 -14 -10 -1 -5 8
-10 10 -10 4 0 -15 25 -36 33 -27 4 3 7 129 7 280 0 150 2 273 5 273 3 0 5
-154 5 -342z m-5998 307 c2 3 3 -9 0 -25 -2 -17 -8 -33 -13 -36 -5 -3 -6 9 -3
25 5 23 2 32 -10 37 -9 3 -16 11 -16 17 0 5 8 3 18 -6 10 -10 21 -15 24 -12z
m392 10 c-5 -11 -2 -14 12 -9 17 6 17 5 -1 -9 -21 -17 -45 -22 -45 -10 0 7 31
43 36 43 2 0 1 -7 -2 -15z m-501 -25 c-9 -16 -21 -30 -25 -30 -5 0 1 14 14 30
12 17 23 30 25 30 2 0 -4 -13 -14 -30z m147 20 c0 -5 -4 -10 -10 -10 -5 0 -10
5 -10 10 0 6 5 10 10 10 6 0 10 -4 10 -10z m253 -7 c-7 -2 -19 -2 -25 0 -7 3
-2 5 12 5 14 0 19 -2 13 -5z m70 -33 c39 -34 44 -35 50 -17 2 6 2 1 0 -13 -3
-14 -9 -29 -15 -35 -8 -7 -9 -6 -4 2 4 7 -3 22 -15 34 l-21 21 -27 -26 c-15
-15 -30 -24 -33 -20 -4 3 -16 0 -28 -6 -22 -12 -50 1 -50 23 0 6 6 3 13 -6 12
-17 15 -16 56 6 46 24 64 47 37 47 -9 0 -16 5 -16 10 0 18 18 11 53 -20z
m-633 -10 c0 -5 -18 -19 -39 -30 -22 -10 -48 -31 -59 -45 -11 -14 -24 -25 -28
-25 -17 0 69 79 92 84 13 4 24 11 24 16 0 6 2 10 5 10 3 0 5 -4 5 -10z m400
-30 c-16 -31 -23 -18 -8 15 7 15 14 23 16 17 2 -6 -2 -21 -8 -32z m-996 -10
c-6 -5 -24 21 -24 34 0 6 6 1 14 -10 8 -10 12 -21 10 -24z m677 23 c13 -16 12
-17 -3 -4 -17 13 -22 21 -14 21 2 0 10 -8 17 -17z m167 -43 c1 -8 -3 -5 -8 8
-5 12 -17 25 -27 29 -15 6 -15 7 3 13 19 7 31 -12 32 -50z m119 40 c-1 -11 -5
-20 -9 -20 -10 0 -10 4 -2 24 8 22 13 20 11 -4z m363 -10 c-6 -11 -13 -20 -16
-20 -2 0 0 9 6 20 6 11 13 20 16 20 2 0 0 -9 -6 -20z m-1243 -52 c-2 -13 -4
-3 -4 22 0 25 2 35 4 23 2 -13 2 -33 0 -45z m340 40 c-3 -8 -6 -5 -6 6 -1 11
2 17 5 13 3 -3 4 -12 1 -19z m-67 -3 c0 -2 -6 -8 -13 -14 -10 -8 -14 -7 -14 2
0 8 6 14 14 14 7 0 13 -1 13 -2z m349 -75 c2 -58 12 -65 59 -41 23 12 47 21
54 21 21 0 -4 -16 -54 -35 -40 -15 -48 -22 -48 -43 0 -24 1 -24 18 -9 10 10
22 17 26 17 4 0 -6 -11 -21 -25 -27 -24 -27 -26 -10 -39 13 -10 15 -16 6 -21
-6 -4 -15 -2 -19 5 -5 7 -10 8 -14 2 -3 -5 1 -15 9 -22 12 -10 18 -10 30 0 19
15 34 5 17 -12 -9 -9 -6 -20 10 -47 12 -20 23 -38 24 -40 2 -2 12 2 21 10 16
12 17 12 6 -1 -6 -8 -26 -24 -45 -34 -24 -15 -30 -16 -20 -4 10 12 10 18 -2
27 -12 10 -20 9 -42 -6 -21 -13 -26 -14 -19 -3 5 8 10 26 11 40 1 14 5 33 9
43 5 13 2 17 -13 17 -12 0 -24 -5 -27 -10 -4 -6 -10 -8 -15 -5 -4 2 -10 -6
-12 -20 -6 -29 8 -34 17 -6 3 11 12 22 20 25 19 7 19 3 -5 -46 -11 -23 -20
-49 -20 -57 0 -11 -3 -12 -12 -3 -8 8 -8 15 2 27 10 12 10 15 -4 15 -14 0 -16
6 -10 38 4 20 7 46 6 57 -1 16 1 17 8 5 5 -8 12 -11 16 -7 4 4 -5 21 -21 37
-16 17 -24 30 -18 30 6 0 16 -7 23 -15 7 -8 16 -12 21 -9 5 3 8 1 7 -4 -2 -6
0 -10 5 -11 22 -3 27 1 27 19 0 12 -6 20 -12 19 -24 -3 -38 1 -38 11 0 6 6 10
13 10 24 0 35 34 26 85 -4 28 -8 61 -7 75 l0 25 8 -25 c4 -14 9 -41 9 -60z
m170 58 c-5 -10 -11 -18 -12 -18 -2 0 -3 8 -3 18 0 10 6 19 13 19 8 0 9 -6 2
-19z m51 7 c-7 -9 -15 -13 -19 -10 -3 3 1 10 9 15 21 14 24 12 10 -5z m290 -4
c0 -24 -49 -111 -66 -118 -7 -2 -21 1 -31 7 -14 9 -14 10 -2 7 20 -7 85 79 81
105 -2 10 2 18 7 18 6 0 11 -8 11 -19z m-915 -1 c3 -5 1 -10 -4 -10 -6 0 -11
5 -11 10 0 6 2 10 4 10 3 0 8 -4 11 -10z m785 -6 c0 -8 -5 -12 -10 -9 -6 4 -8
11 -5 16 9 14 15 11 15 -7z m-680 -4 c0 -5 -2 -10 -4 -10 -3 0 -8 5 -11 10 -3
6 -1 10 4 10 6 0 11 -4 11 -10z m606 -17 c-8 -15 -23 -23 -53 -28 -23 -3 -45
-10 -47 -14 -3 -4 6 -26 19 -48 13 -24 18 -40 10 -37 -7 3 -20 23 -30 45 -20
44 -34 50 -42 18 -6 -20 -7 -21 -19 -5 -10 15 -9 21 4 35 9 10 23 26 30 37 11
17 11 17 2 -3 -14 -31 -13 -35 13 -27 12 4 33 8 46 10 13 1 29 8 35 15 8 9 7
11 -5 6 -9 -3 -16 0 -16 6 0 7 14 12 32 12 28 0 30 -2 21 -22z m124 7 c-27
-21 -45 -26 -35 -9 6 9 41 27 55 28 3 0 -6 -8 -20 -19z m-190 0 c0 -5 -5 -10
-11 -10 -5 0 -7 5 -4 10 3 6 8 10 11 10 2 0 4 -4 4 -10z m-634 -22 c-14 -19
-13 -24 6 -52 l22 -31 -26 23 c-17 15 -28 20 -33 13 -3 -6 -11 -11 -16 -11 -5
0 5 18 22 40 34 43 50 54 25 18z m537 -10 c-2 -5 -9 -8 -14 -8 -6 0 -7 5 -4
10 10 16 -6 12 -29 -7 -16 -14 -16 -12 3 9 18 21 26 24 36 15 7 -7 11 -15 8
-19z m-900 5 c-4 -10 -14 -24 -22 -31 -9 -8 -10 -10 -3 -7 12 6 12 3 2 -15 -7
-12 -10 -33 -7 -46 2 -14 -1 -25 -10 -28 -11 -5 -12 2 -7 32 9 45 9 51 -1 77
-5 11 -5 17 0 13 4 -4 17 -1 29 7 26 19 27 19 19 -2z m67 -4 c0 -6 -4 -7 -10
-4 -5 3 -10 11 -10 16 0 6 5 7 10 4 6 -3 10 -11 10 -16z m1070 1 c6 -12 8 -36
4 -56 -6 -32 -8 -34 -17 -18 -7 12 -7 19 0 21 12 4 4 53 -9 53 -5 0 -6 5 -3
10 9 14 13 13 25 -10z m197 5 c0 -8 -4 -12 -9 -9 -5 3 -6 10 -3 15 9 13 12 11
12 -6z m-1125 -27 c-8 -8 -9 -4 -5 13 4 13 8 18 11 10 2 -7 -1 -18 -6 -23z
m1108 -4 c0 -8 7 -14 15 -14 8 0 15 -4 15 -10 0 -5 6 -10 14 -10 8 0 18 -5 22
-12 5 -8 -6 -9 -42 -5 l-49 7 30 -25 c17 -13 25 -24 19 -25 -6 0 -17 7 -24 15
-7 8 -16 15 -20 15 -12 0 -7 -34 7 -48 7 -7 13 -27 13 -45 0 -29 -1 -30 -15
-11 -22 29 -18 0 6 -40 11 -20 19 -41 16 -48 -3 -7 -13 6 -23 30 -17 43 -18
43 -30 20 l-13 -23 -1 22 c0 12 5 25 10 28 12 8 12 16 1 34 -8 12 -12 13 -25
1 -9 -7 -19 -10 -23 -7 -3 4 8 14 26 24 29 17 47 62 19 48 -7 -4 -5 0 5 8 9 8
17 21 17 30 0 10 7 14 23 10 19 -4 20 -3 6 9 -16 13 -23 51 -7 42 4 -3 8 -12
8 -20z m-286 -14 c-6 -6 -10 -3 -10 10 0 13 4 16 10 10 7 -7 7 -13 0 -20z
m480 -2 c8 -6 6 -11 -4 -17 -19 -13 -30 4 -22 32 4 16 7 17 10 7 3 -8 10 -18
16 -22z m-1074 -9 c0 -4 -7 -6 -15 -3 -8 4 -15 10 -15 15 0 4 7 6 15 3 8 -4
15 -10 15 -15z m45 -47 c-4 -12 -3 -13 10 -2 10 8 15 9 15 1 0 -6 -4 -11 -10
-11 -5 0 -10 -7 -10 -16 0 -10 6 -14 15 -10 23 8 18 -6 -12 -34 l-26 -25 5 38
c2 20 2 37 0 37 -2 0 -24 -16 -48 -36 -51 -42 -57 -40 -14 6 17 18 30 29 30
25 0 -5 9 0 20 10 19 17 19 20 4 44 l-17 26 22 -19 c12 -11 19 -26 16 -34z
m213 18 c-12 -16 -23 -30 -25 -30 -2 0 4 14 14 30 9 17 21 30 25 30 5 0 -1
-13 -14 -30z m847 10 c-10 -11 -21 -17 -24 -14 -3 3 3 12 13 20 28 20 32 17
11 -6z m-1329 -28 c-9 -8 -26 10 -26 26 1 15 2 15 15 -2 8 -11 13 -21 11 -24z
m106 26 c-5 -7 -12 -22 -15 -33 -5 -20 -5 -20 -6 1 0 11 4 25 11 32 16 16 23
15 10 0z m278 -17 c0 -3 -16 -16 -35 -29 -33 -21 -35 -21 -23 -2 7 11 16 20
20 20 5 0 8 7 8 15 0 9 6 12 15 9 8 -4 15 -9 15 -13z m616 -6 c-11 -8 -29 -15
-41 -15 -12 0 -26 -5 -33 -12 -8 -8 -12 -8 -12 -1 0 22 25 33 95 41 6 1 1 -5
-9 -13z m284 0 c-7 -8 -17 -15 -22 -15 -6 0 -5 7 2 15 7 8 17 15 22 15 6 0 5
-7 -2 -15z m-392 -17 c-3 -15 -18 -28 -32 -28 -5 0 -1 9 9 20 21 23 26 25 23
8z m-1063 -8 c3 -5 -3 -10 -15 -10 -12 0 -18 5 -15 10 3 6 10 10 15 10 5 0 12
-4 15 -10z m569 -37 c-33 -44 -35 -48 -18 -60 10 -7 13 -13 7 -13 -7 0 -15 6
-20 13 -11 18 -14 47 -5 44 5 -1 21 13 36 31 41 48 41 39 0 -15z m356 15 c0
-5 -9 -4 -20 2 -11 6 -18 15 -14 21 6 11 34 -7 34 -23z m570 -19 c0 -10 -5
-21 -12 -25 -8 -5 -9 -2 -4 11 4 10 0 29 -10 44 l-17 26 21 -19 c12 -11 22
-27 22 -37z m82 7 c10 -19 10 -20 -6 -7 -9 8 -22 24 -28 35 -10 19 -10 20 6 7
9 -8 22 -24 28 -35z m5265 7 c-3 -10 -5 -4 -5 12 0 17 2 24 5 18 2 -7 2 -21 0
-30z m-6792 9 c-3 -3 -11 0 -18 7 -9 10 -8 11 6 5 10 -3 15 -9 12 -12z m825
-2 c0 -5 -12 -10 -27 -9 -25 0 -26 1 -8 9 27 12 35 12 35 0z m150 -57 c0 -11
-26 5 -32 20 -4 9 -14 17 -23 17 -8 0 -15 5 -15 11 0 5 5 7 10 4 6 -3 10 -1
10 6 0 7 11 -2 25 -21 14 -19 25 -35 25 -37z m5515 57 c3 -5 1 -10 -4 -10 -6
0 -11 5 -11 10 0 6 2 10 4 10 3 0 8 -4 11 -10z m-5729 -28 c-4 -3 -14 2 -24
12 -16 18 -16 18 6 6 13 -6 21 -14 18 -18z m300 11 c7 -10 14 -22 14 -27 0 -6
-7 -1 -15 10 -13 18 -14 16 -15 -21 -1 -35 -2 -37 -11 -17 -5 13 -7 28 -4 32
3 5 1 11 -5 15 -12 7 -4 25 12 25 6 0 17 -8 24 -17z m-1049 -88 c23 -11 42
-24 43 -28 0 -5 -4 -5 -10 -2 -5 3 -10 1 -10 -4 0 -20 -24 -11 -45 15 l-21 27
1 -34 c1 -19 0 -23 -2 -11 -4 23 -5 23 -18 5 -12 -16 -13 -11 -8 37 l6 55 -29
-34 c-16 -19 -28 -44 -27 -55 3 -21 3 -21 -6 -1 -7 15 -3 26 15 46 24 25 32
45 14 34 -5 -3 -10 -1 -10 4 0 6 5 11 11 11 6 0 18 8 27 17 16 16 17 14 22
-23 4 -34 10 -41 47 -59z m353 40 c0 -43 -16 -47 -22 -6 -2 17 -1 28 4 25 4
-3 8 0 8 5 0 6 2 11 5 11 3 0 5 -16 5 -35z m100 -5 c0 -13 -1 -13 -10 0 -8 12
-10 12 -10 1 0 -8 -2 -12 -5 -10 -2 3 -2 15 2 28 4 17 8 19 14 9 5 -7 9 -20 9
-28z m-306 15 c3 -8 1 -15 -4 -15 -6 0 -10 7 -10 15 0 8 2 15 4 15 2 0 6 -7
10 -15z m1006 -5 c-12 -22 -27 -25 -50 -10 -12 8 -9 10 13 10 15 0 27 5 27 10
0 6 5 10 10 10 7 0 7 -6 0 -20z m-1131 -29 c15 -23 15 -24 -5 -13 -11 6 -27
18 -35 28 -12 14 -11 16 5 13 10 -2 26 -15 35 -28z m391 9 c0 -5 -2 -10 -4
-10 -3 0 -8 5 -11 10 -3 6 -1 10 4 10 6 0 11 -4 11 -10z m6376 -15 c1 -8 -2
-15 -7 -15 -5 0 -9 10 -9 22 0 23 12 17 16 -7z m-6221 -8 c-4 -13 -7 -30 -9
-38 -6 -30 -47 -112 -53 -105 -3 3 -2 16 4 29 19 41 34 80 31 82 -2 1 -14 8
-26 14 -13 7 -21 15 -18 18 3 3 17 -2 31 -11 24 -16 25 -15 25 2 0 17 8 32 17
32 2 0 1 -10 -2 -23z m422 -38 c-12 -28 -23 -46 -25 -40 -3 9 35 91 42 91 3 0
-5 -23 -17 -51z m5480 14 c-3 -10 -5 -4 -5 12 0 17 2 24 5 18 2 -7 2 -21 0
-30z m-6193 21 c9 -3 16 -10 16 -15 0 -14 -24 -11 -46 6 -16 12 -17 14 -2 15
9 0 23 -3 32 -6z m166 -9 c7 -8 17 -12 23 -8 6 3 7 1 3 -5 -11 -18 -30 -14
-44 8 -14 23 0 27 18 5z m-300 -5 c0 -5 -2 -10 -4 -10 -3 0 -8 5 -11 10 -3 6
-1 10 4 10 6 0 11 -4 11 -10z m216 -16 c-9 -20 -12 -20 -23 -5 -18 23 -16 29
10 27 20 -1 21 -4 13 -22z m6261 -81 c-2 -21 -4 -4 -4 37 0 41 2 58 4 38 2
-21 2 -55 0 -75z m-6829 62 c-3 -3 -9 2 -12 12 -6 14 -5 15 5 6 7 -7 10 -15 7
-18z m712 21 c0 -2 -7 -7 -16 -10 -8 -3 -12 -2 -9 4 6 10 25 14 25 6z m689
-22 c27 -34 27 -55 1 -24 -11 13 -20 28 -20 34 0 6 -5 5 -12 -2 -17 -17 -33
-15 -18 3 17 21 25 19 49 -11z m181 -4 c0 -17 -15 -11 -28 11 -12 19 -11 19 8
9 11 -6 20 -15 20 -20z m-1210 -1 c0 -6 -5 -7 -11 -4 -5 4 -19 -1 -29 -10 -10
-9 -23 -14 -28 -11 -5 3 -15 -1 -21 -8 -9 -11 -9 -23 3 -50 8 -20 11 -36 7
-36 -5 0 -14 13 -21 30 -18 44 -29 27 -23 -38 3 -42 2 -53 -6 -42 -6 8 -11 31
-11 51 l0 36 -42 -8 c-56 -11 -60 -11 -53 0 3 6 27 13 53 17 30 4 57 16 75 32
15 14 34 27 44 28 9 2 23 10 31 18 16 15 32 13 32 -5z m170 17 c0 -2 -7 -9
-15 -16 -13 -11 -14 -10 -9 4 5 14 24 23 24 12z m990 0 c0 -2 -8 -10 -17 -17
-16 -13 -17 -12 -4 4 13 16 21 21 21 13z m-1273 -38 c-3 -7 -5 -2 -5 12 0 14
2 19 5 13 2 -7 2 -19 0 -25z m-227 1 c0 -6 -4 -7 -10 -4 -5 3 -10 11 -10 16 0
6 5 7 10 4 6 -3 10 -11 10 -16z m35 11 c3 -5 1 -10 -4 -10 -6 0 -11 5 -11 10
0 6 2 10 4 10 3 0 8 -4 11 -10z m628 -5 c-3 -9 -8 -14 -10 -11 -3 3 -2 9 2 15
9 16 15 13 8 -4z m-111 -32 c3 -22 0 -41 -6 -45 -6 -4 -7 -8 -2 -8 6 0 21 10
34 23 16 14 23 16 20 7 -6 -19 38 -54 54 -44 10 6 10 4 0 -8 -7 -9 -24 -19
-37 -22 -31 -8 -31 -17 -4 -42 21 -19 22 -19 15 1 -4 14 0 24 14 33 17 10 20
10 20 -6 0 -10 -7 -27 -15 -38 -19 -25 -19 -34 1 -34 14 0 14 -3 4 -15 -7 -9
-10 -18 -7 -22 10 -9 38 19 33 33 -2 7 5 20 17 30 12 10 16 12 10 4 -22 -25
-14 -33 15 -15 26 17 26 17 10 0 -15 -17 -15 -19 13 -43 37 -30 30 -42 -7 -13
-32 26 -42 26 -67 4 -18 -17 -19 -17 -33 2 -13 17 -19 14 -15 -8 1 -5 -3 -6
-9 -2 -5 3 -10 0 -11 -7 0 -9 -2 -10 -5 -1 -3 7 -12 9 -21 6 -11 -4 -14 -3 -9
6 5 7 13 10 20 8 8 -3 11 9 11 39 -2 54 -11 65 -26 31 -9 -21 -9 -30 0 -41 10
-12 9 -14 -7 -9 -12 3 -22 -1 -25 -11 -4 -9 -2 -16 3 -16 6 0 10 -6 10 -14 0
-8 6 -16 13 -19 15 -6 -5 -43 -22 -40 -6 2 -8 -3 -5 -11 3 -9 -6 -18 -25 -24
-17 -6 -31 -7 -31 -2 0 5 9 12 20 15 11 3 20 11 20 16 0 13 -14 11 -29 -3 -11
-11 -11 -9 -2 9 11 21 25 24 48 10 6 -4 14 -3 18 3 3 6 -1 13 -9 16 -9 3 -13
10 -10 15 3 5 1 9 -5 9 -5 0 -12 -6 -14 -12 -4 -10 -8 -9 -16 2 -9 13 -11 13
-11 0 0 -9 -9 -23 -20 -33 -18 -15 -24 -14 -21 5 1 9 -29 -1 -46 -15 -9 -6
-13 -6 -13 2 0 6 20 20 45 31 42 18 66 37 28 23 -11 -4 -14 -3 -9 5 4 7 16 12
27 12 10 0 19 5 19 12 0 6 -3 9 -6 5 -4 -3 -15 4 -25 16 -15 19 -21 20 -38 9
-12 -7 -21 -8 -21 -4 0 8 63 42 77 42 3 0 1 -6 -5 -13 -7 -8 -7 -18 -2 -27 8
-13 10 -12 10 3 0 9 4 17 10 17 5 0 7 -6 4 -14 -3 -7 1 -16 10 -19 8 -3 17 1
20 9 6 17 -3 44 -15 44 -5 0 -9 11 -9 25 0 22 -3 25 -27 20 -27 -6 -27 -6 -8
9 11 8 26 20 33 26 6 6 12 7 12 3 0 -4 4 -2 9 6 5 7 6 31 4 52 -4 23 -2 39 5
39 5 0 12 -17 14 -37z m287 -9 c17 11 13 -7 -10 -34 -16 -20 -18 -21 -10 -4 8
17 6 25 -9 39 -11 10 -20 23 -20 29 0 6 9 0 19 -13 10 -13 23 -21 30 -17z
m-103 3 c-4 -18 0 -27 19 -37 33 -18 25 -24 -11 -8 -40 17 -39 15 -24 43 17
31 24 32 16 2z m199 -7 c18 -19 17 -20 -13 -31 -27 -9 -30 -13 -18 -25 8 -8
27 -14 43 -15 27 0 27 -1 5 -9 -12 -5 -28 -7 -36 -4 -7 3 -19 -7 -27 -23 -8
-15 -22 -29 -31 -29 -26 -2 -22 11 13 40 28 24 29 31 6 27 -5 -1 -6 3 -3 8 10
16 -14 23 -31 9 -15 -12 -15 -11 -4 10 10 19 15 21 27 11 11 -9 18 -8 32 5 10
9 22 13 25 9 4 -3 7 -2 7 3 0 6 -5 15 -12 22 -7 7 -10 12 -7 12 3 0 14 -9 24
-20z m5712 -17 c-3 -10 -5 -4 -5 12 0 17 2 24 5 18 2 -7 2 -21 0 -30z m-6637
-13 l-8 -35 -1 31 c-1 17 2 34 6 37 11 12 12 3 3 -33z m760 36 c0 -3 -4 -8
-10 -11 -5 -3 -10 -1 -10 4 0 6 5 11 10 11 6 0 10 -2 10 -4z m660 -6 c0 -5 -9
-10 -20 -10 -11 0 -20 5 -20 10 0 6 9 10 20 10 11 0 20 -4 20 -10z m-625 -20
c3 -5 -1 -10 -9 -10 -9 0 -16 5 -16 10 0 6 4 10 9 10 6 0 13 -4 16 -10z m5382
-22 c-3 -7 -5 -2 -5 12 0 14 2 19 5 13 2 -7 2 -19 0 -25z m-5510 -30 c-3 -7
-5 -2 -5 12 0 14 2 19 5 13 2 -7 2 -19 0 -25z m782 -18 c0 -9 -4 -8 -9 5 -5
11 -9 27 -9 35 0 9 4 8 9 -5 5 -11 9 -27 9 -35z m-1162 18 c-3 -8 -6 -5 -6 6
-1 11 2 17 5 13 3 -3 4 -12 1 -19z m433 12 c0 -5 -5 -10 -11 -10 -5 0 -7 5 -4
10 3 6 8 10 11 10 2 0 4 -4 4 -10z m970 -4 c0 -2 -8 -10 -17 -17 -16 -13 -17
-12 -4 4 13 16 21 21 21 13z m4487 -168 c-2 -35 -3 -9 -3 57 0 66 1 94 3 63 2
-32 2 -86 0 -120z m-5473 136 c3 -8 2 -12 -4 -9 -6 3 -10 10 -10 16 0 14 7 11
14 -7z m-576 -83 c2 -34 -1 -62 -7 -66 -7 -4 -11 11 -11 45 0 38 -4 52 -17 57
-15 6 -15 7 3 14 10 4 21 8 24 8 3 1 7 -26 8 -58z m528 31 c-17 -16 -18 -16
-5 5 7 12 15 20 18 17 3 -2 -3 -12 -13 -22z m113 14 c10 -12 8 -13 -8 -9 -12
3 -21 9 -21 14 0 14 16 11 29 -5z m-394 -7 c11 -17 -1 -21 -15 -4 -8 9 -8 15
-2 15 6 0 14 -5 17 -11z m-109 -28 c-7 -11 -56 -21 -56 -10 0 9 19 17 43 18
10 1 16 -3 13 -8z m568 -23 c18 -25 21 -42 7 -33 -5 3 -11 0 -14 -7 -2 -7 -3
-5 -2 4 2 9 -4 26 -12 37 -8 12 -10 21 -4 21 5 0 17 -10 25 -22z m-514 -30 c0
-12 -6 -9 -26 13 -19 22 -19 22 4 8 12 -8 22 -17 22 -21z m82 -18 c7 0 2 -6
-12 -13 -18 -10 -24 -20 -22 -38 2 -23 2 -23 -15 -7 -16 16 -16 19 0 36 20 22
21 30 5 52 -7 9 -3 6 9 -7 12 -13 28 -23 35 -23z m-141 20 c10 0 17 -6 15 -12
-3 -7 -7 -25 -10 -40 -8 -34 -25 -37 -19 -4 3 13 0 32 -5 43 -10 17 -11 17
-18 -2 -8 -21 -33 -44 -47 -45 -5 0 6 19 24 41 18 23 35 37 37 30 2 -6 12 -11
23 -11z m639 -4 c0 -2 -9 -2 -20 1 -11 3 -20 9 -20 15 0 5 9 4 20 -2 11 -6 20
-12 20 -14z m25 -5 c3 -5 1 -12 -5 -16 -5 -3 -10 1 -10 9 0 18 6 21 15 7z
m-302 -58 c-8 -3 -9 -10 -3 -21 5 -9 12 -30 16 -47 4 -16 8 -33 9 -37 2 -5 3
-15 4 -23 0 -8 8 -15 17 -15 18 0 17 6 -15 88 l-21 52 30 0 c17 0 30 -4 30
-10 0 -5 -7 -10 -15 -10 -18 0 -20 -36 -2 -47 6 -4 21 -6 32 -5 18 2 18 1 3
-11 -11 -8 -14 -22 -11 -40 4 -22 2 -27 -14 -27 -16 0 -19 -8 -18 -54 0 -57 2
-58 45 -22 14 11 9 3 -11 -19 -20 -22 -34 -46 -31 -54 3 -8 0 -11 -7 -7 -6 4
-11 3 -11 -2 0 -16 33 -24 42 -10 4 7 8 8 8 3 0 -6 -5 -16 -11 -22 -8 -8 -8
-17 0 -30 7 -14 7 -23 -1 -31 -15 -15 -82 -16 -73 -2 3 6 22 10 40 10 l34 0
-20 34 c-33 56 -46 62 -72 37 -32 -29 -39 -27 -65 19 -28 50 -22 53 8 4 l22
-35 24 22 c30 28 30 39 2 39 -21 1 -21 2 -5 11 9 5 22 7 29 3 7 -5 9 -2 5 8
-4 12 -1 14 15 10 20 -5 20 -2 13 54 -4 32 -11 64 -16 70 -4 6 -9 25 -11 42
-1 18 -7 32 -12 32 -5 0 -6 3 -3 6 3 4 2 16 -4 27 -8 14 -8 18 0 13 6 -4 11 0
11 10 0 15 2 16 13 5 9 -11 9 -14 0 -18z m207 -18 c-15 -39 -23 -25 -8 16 6
18 13 29 15 23 2 -6 -1 -24 -7 -39z m-72 1 c-10 -7 -18 -19 -19 -27 0 -10 -2
-10 -6 -2 -3 9 -11 8 -31 -4 -31 -19 -20 -6 22 25 16 12 34 22 40 22 6 0 3 -7
-6 -14z m197 4 c4 -7 -3 -8 -22 -4 -38 9 -42 14 -10 14 14 0 29 -5 32 -10z
m-712 -43 c7 3 9 3 5 -1 -3 -4 -8 -6 -11 -4 -2 2 -11 -3 -21 -11 -15 -13 -15
-15 0 -32 15 -17 15 -18 -4 -16 -12 0 -23 9 -25 19 -4 15 -9 17 -33 8 -24 -10
-26 -9 -14 5 9 10 22 14 36 11 33 -9 39 12 13 42 l-24 26 33 -27 c19 -15 39
-24 45 -20z m85 14 c-7 -12 -16 -21 -21 -21 -8 0 -2 14 16 38 16 20 20 6 5
-17z m130 -4 c24 -35 28 -57 12 -57 -5 0 -10 8 -10 18 -1 20 -23 52 -37 52 -5
0 -20 -11 -32 -24 -24 -26 -90 -44 -70 -19 7 7 19 13 28 13 9 0 29 11 45 25
16 14 32 25 35 25 3 0 16 -15 29 -33z m132 17 c0 -2 -7 -4 -15 -4 -8 0 -15 4
-15 10 0 5 7 7 15 4 8 -4 15 -8 15 -10z m319 -17 c0 -8 -2 -8 -6 1 -4 10 -8
10 -21 0 -15 -12 -16 -11 -3 4 14 19 32 15 30 -5z m6851 13 c-68 -4 -81 -7
-45 -9 41 -2 46 -4 25 -11 l-25 -8 25 -2 c14 -1 28 -2 33 -1 4 0 6 -2 6 -6 -3
-19 2 -33 12 -33 5 0 7 5 3 12 -5 7 -3 8 5 4 7 -5 10 -14 8 -20 -3 -7 1 -13 9
-13 7 0 10 5 7 11 -3 6 0 5 8 -2 11 -10 14 -57 14 -231 0 -188 -2 -220 -16
-234 -9 -9 -19 -13 -23 -10 -6 6 -10 -13 -7 -31 1 -5 -6 -3 -15 5 -16 13 -17
12 -10 -6 4 -11 4 -16 0 -12 -4 4 -16 -1 -27 -10 -15 -13 -18 -14 -12 -3 7 12
6 13 -7 3 -8 -7 -17 -11 -20 -8 -3 3 -11 -1 -18 -10 -12 -14 -15 -14 -33 2
-11 10 -18 13 -14 7 3 -6 0 -11 -7 -11 -9 0 -12 7 -8 16 3 9 2 13 -3 9 -4 -4
-14 -3 -22 3 -7 6 -13 8 -14 3 0 -5 -4 0 -9 11 -10 23 -13 578 -3 588 3 4 67
6 142 5 l136 -2 -95 -6z m-7620 -34 c0 -3 -4 -8 -10 -11 -5 -3 -10 -1 -10 4 0
6 5 11 10 11 6 0 10 -2 10 -4z m280 -6 c0 -5 -2 -10 -4 -10 -3 0 -8 5 -11 10
-3 6 -1 10 4 10 6 0 11 -4 11 -10z m-313 -6 c-3 -3 -12 -4 -19 -1 -8 3 -5 6 6
6 11 1 17 -2 13 -5z m333 -13 c-13 -26 -13 -28 8 -33 10 -3 29 3 41 13 13 11
31 19 40 19 9 0 2 -8 -17 -20 -26 -16 -32 -25 -27 -41 6 -18 5 -19 -13 -8 -12
7 -18 17 -16 21 7 11 1 10 -32 -2 -26 -10 -26 -11 -8 -31 16 -18 16 -19 1 -13
-10 3 -17 1 -17 -5 0 -6 -4 -11 -10 -11 -12 0 0 63 14 72 7 5 4 8 -6 8 -20 0
-24 15 -7 26 6 3 15 1 19 -6 6 -9 10 -7 15 9 3 11 11 21 16 21 6 0 6 -7 -1
-19z m335 -1 c-3 -5 -10 -10 -16 -10 -5 0 -9 5 -9 10 0 6 7 10 16 10 8 0 12
-4 9 -10z m19 -15 c-4 -8 -10 -12 -15 -9 -5 3 -9 0 -9 -5 0 -6 -4 -11 -10 -11
-25 0 2 28 37 39 1 1 0 -6 -3 -14z m-59 -17 c6 -4 2 -8 -7 -8 -10 0 -18 7 -18
17 0 9 3 12 8 7 4 -5 12 -12 17 -16z m5767 5 c-23 -2 -40 -8 -37 -14 4 -5 -1
-9 -9 -9 -8 0 -18 -5 -22 -12 -4 -6 -3 -8 3 -5 6 4 13 0 17 -8 3 -10 -1 -15
-13 -15 -15 0 -18 -8 -16 -60 2 -67 -1 -75 -32 -76 -22 -1 -23 2 -23 103 l0
103 88 -2 c48 -1 68 -3 44 -5z m-6352 -33 c0 -11 -2 -20 -4 -20 -2 0 -6 9 -9
20 -3 11 -1 20 4 20 5 0 9 -9 9 -20z m455 -36 c-17 -26 -17 -27 0 -20 15 5 16
4 5 -9 -7 -9 -15 -13 -18 -11 -2 3 -13 1 -23 -5 -13 -7 -19 -6 -19 1 0 6 7 13
16 17 8 3 13 12 10 19 -3 8 0 13 6 11 6 -1 13 4 16 12 3 10 0 11 -9 5 -11 -6
-12 -5 -2 8 7 8 11 17 9 20 -1 3 4 0 12 -8 13 -11 13 -16 -3 -40z m147 16 c5
-32 -6 -41 -16 -14 -9 23 -7 44 3 44 5 0 11 -13 13 -30z m-243 1 c13 10 32 19
43 19 28 0 14 -16 -20 -23 -16 -3 -32 -14 -36 -24 -3 -10 -9 -24 -12 -30 -3
-8 1 -13 11 -13 12 0 9 -7 -12 -25 -15 -13 -22 -25 -15 -25 15 0 16 -41 0 -75
-9 -20 -8 -31 2 -50 17 -32 31 -14 24 30 l-4 30 13 -34 c7 -18 24 -39 37 -47
23 -12 23 -13 4 -14 -11 0 -25 5 -32 12 -9 9 -12 7 -12 -12 -1 -25 -1 -24 -31
8 -29 32 -31 33 -55 18 -13 -9 -24 -12 -24 -6 0 5 9 15 21 22 32 20 58 78 48
106 -6 17 -5 28 6 39 15 15 12 33 -6 33 -6 0 -8 -4 -4 -9 3 -5 0 -13 -6 -16
-19 -12 -21 3 -4 29 16 23 16 27 1 41 -26 27 -18 38 12 17 27 -20 28 -20 51
-1z m-189 -21 c0 -15 -5 -12 -26 11 -19 22 -19 22 4 10 12 -6 22 -16 22 -21z
m-223 1 c0 -11 -5 -17 -10 -14 -5 3 -7 -3 -3 -13 3 -11 8 -37 10 -58 5 -37 26
-76 26 -48 0 7 19 33 42 58 39 42 41 47 25 59 -21 15 -22 25 -2 25 21 0 37
-34 22 -49 -9 -9 -7 -16 11 -29 22 -17 22 -18 3 -19 -12 -1 -23 3 -27 8 -7 13
-64 -39 -64 -58 0 -26 -38 -4 -59 35 -11 20 -15 21 -28 10 -14 -11 -15 -11
-11 2 3 9 15 14 28 12 19 -2 21 1 16 20 -3 13 -6 26 -6 30 0 4 -11 3 -25 -2
-16 -6 -25 -6 -25 0 0 6 14 13 30 17 17 3 30 12 30 19 0 8 4 14 9 14 6 0 9 -9
8 -19z m736 12 c-7 -2 -19 -2 -25 0 -7 3 -2 5 12 5 14 0 19 -2 13 -5z m-33
-17 c0 -2 -7 -6 -15 -10 -8 -3 -15 -1 -15 4 0 6 7 10 15 10 8 0 15 -2 15 -4z
m35 -6 c3 -5 -1 -10 -9 -10 -9 0 -16 5 -16 10 0 6 4 10 9 10 6 0 13 -4 16 -10z
m-575 -24 c0 -2 -6 -9 -14 -15 -11 -9 -16 -9 -22 0 -4 8 -3 9 4 5 7 -4 12 -2
12 3 0 6 5 11 10 11 6 0 10 -2 10 -4z m120 -5 c0 -12 -20 -25 -27 -18 -7 7 6
27 18 27 5 0 9 -4 9 -9z m42 -44 c12 -28 13 -36 4 -24 -12 15 -18 16 -35 7
-12 -6 -21 -7 -21 -1 0 5 7 12 16 15 10 4 14 14 11 26 -9 36 8 21 25 -23z
m-67 -79 c1 -10 -2 -18 -7 -18 -4 0 -8 7 -8 16 0 9 -5 12 -12 8 -7 -5 -8 -3
-2 7 5 8 8 23 6 34 -1 16 1 15 9 -5 7 -14 13 -33 14 -42z m-325 48 c0 -2 -7
-7 -16 -10 -8 -3 -12 -2 -9 4 6 10 25 14 25 6z m1173 -31 c-3 -9 -8 -14 -10
-11 -3 3 -2 9 2 15 9 16 15 13 8 -4z m5217 -51 c0 -7 -5 -16 -11 -20 -8 -4 -9
1 -4 16 6 18 4 22 -8 17 -18 -7 -32 34 -15 44 12 8 38 -32 38 -57z m-6250 41
c11 -13 10 -14 -4 -9 -9 3 -16 10 -16 15 0 13 6 11 20 -6z m-230 1 c0 -2 -12
-11 -27 -20 l-28 -17 24 20 c23 21 31 25 31 17z m781 -23 c13 -16 12 -17 -3
-4 -10 7 -18 15 -18 17 0 8 8 3 21 -13z m5636 -170 c-2 -37 -3 -9 -3 62 0 72
1 102 3 68 2 -34 2 -93 0 -130z m-6349 157 c-7 -10 -14 -17 -17 -15 -4 4 18
35 25 35 2 0 -1 -9 -8 -20z m261 -2 c-6 -13 -23 -35 -37 -50 -22 -24 -23 -28
-9 -34 10 -3 17 -11 17 -16 0 -6 -6 -5 -15 2 -13 11 -15 5 -15 -44 0 -40 -3
-55 -11 -50 -8 4 -10 27 -6 63 3 38 0 65 -9 82 -7 13 -13 28 -14 32 0 15 21
-5 29 -26 7 -20 10 -18 37 20 31 45 52 58 33 21z m94 -5 c-7 -2 -13 -12 -13
-20 0 -12 3 -13 13 -5 10 9 12 4 9 -24 -2 -19 -8 -36 -12 -39 -4 -2 -5 7 -2
20 4 26 -12 35 -22 13 -2 -7 -3 -2 -1 12 2 14 4 31 4 38 1 6 9 12 19 11 10 0
12 -3 5 -6z m1002 -3 c-3 -5 -12 -10 -18 -10 -7 0 -6 4 3 10 19 12 23 12 15 0z
m-597 -30 c6 0 14 -5 18 -11 4 -8 -1 -9 -16 -4 -15 5 -20 3 -16 -3 3 -6 2 -13
-3 -16 -5 -3 -11 10 -13 30 -3 29 -2 33 7 20 7 -9 17 -16 23 -16z m693 -7 c13
-15 12 -15 -6 -4 -15 9 -27 10 -47 2 -22 -8 -27 -17 -31 -53 l-4 -43 -1 42
c-2 33 3 45 20 57 29 21 52 20 69 -1z m-166 -13 c-10 -11 -23 -20 -29 -20 -6
1 0 10 13 20 30 26 39 26 16 0z m-1018 -12 c-3 -8 -6 -5 -6 6 -1 11 2 17 5 13
3 -3 4 -12 1 -19z m474 -27 c0 9 2 10 6 2 6 -15 43 5 43 23 0 7 10 14 23 17
20 6 21 5 4 -8 -10 -7 -17 -17 -16 -22 1 -4 -11 -14 -27 -22 -35 -17 -44 -29
-44 -61 0 -14 -5 -32 -11 -40 -8 -11 -9 -1 -5 36 4 28 2 62 -3 75 -9 24 -9 24
-21 -8 -7 -18 -17 -33 -22 -33 -7 0 -7 4 0 13 5 6 13 27 17 45 l7 33 24 -32
c14 -19 24 -27 25 -18z m310 12 c13 -16 12 -17 -3 -4 -10 7 -18 15 -18 17 0 8
8 3 21 -13z m-926 -3 c3 -5 1 -10 -4 -10 -6 0 -11 5 -11 10 0 6 2 10 4 10 3 0
8 -4 11 -10z m182 -22 c-3 -7 -5 -2 -5 12 0 14 2 19 5 13 2 -7 2 -19 0 -25z
m-28 -48 c5 -16 16 -30 24 -30 8 0 20 -7 27 -15 10 -12 9 -15 -5 -15 -10 0
-26 7 -35 15 -15 13 -19 13 -36 -3 -30 -28 -74 -55 -74 -46 0 5 20 24 45 42
39 30 43 36 35 58 -5 13 -6 24 -1 24 5 0 14 -13 20 -30z m562 -21 c-9 -22 -10
-22 -10 -3 -1 11 2 24 6 27 12 12 14 0 4 -24z m204 -19 c-9 -16 -18 -30 -21
-30 -2 0 2 14 11 30 9 17 18 30 21 30 2 0 -2 -13 -11 -30z m-925 -10 c12 -12
26 -18 33 -14 9 5 9 4 1 -5 -8 -9 -18 -8 -42 6 -31 18 -41 33 -22 33 6 0 19
-9 30 -20z m6269 -25 c1 6 11 -5 22 -22 12 -18 27 -33 35 -33 48 0 221 -25
284 -40 41 -11 59 -17 40 -15 -54 7 -210 8 -216 2 -3 -3 18 -10 48 -15 l53
-10 -65 -1 c-36 -1 -90 -7 -120 -14 -30 -7 -66 -12 -80 -12 -24 0 -25 3 -28
70 -2 39 0 86 4 105 l7 35 7 -30 c4 -16 8 -25 9 -20z m-5722 -17 c-3 -7 -5 -2
-5 12 0 14 2 19 5 13 2 -7 2 -19 0 -25z m5680 -10 c-3 -7 -5 -2 -5 12 0 14 2
19 5 13 2 -7 2 -19 0 -25z m-6237 12 c0 -5 -5 -10 -11 -10 -5 0 -7 5 -4 10 3
6 8 10 11 10 2 0 4 -4 4 -10z m-50 -6 c0 -3 -7 -12 -15 -20 -8 -9 -15 -30 -16
-47 0 -26 -2 -28 -8 -12 -8 21 15 85 31 85 4 0 8 -3 8 -6z m638 -64 c6 -16 7
-30 2 -30 -6 0 -30 52 -30 67 0 14 20 -12 28 -37z m362 25 c-7 -9 -15 -13 -17
-11 -7 7 7 26 19 26 6 0 6 -6 -2 -15z m27 -27 c-3 -7 -5 -2 -5 12 0 14 2 19 5
13 2 -7 2 -19 0 -25z m4533 12 c0 -5 -5 -10 -11 -10 -5 0 -7 5 -4 10 3 6 8 10
11 10 2 0 4 -4 4 -10z m-5095 -18 c-3 -3 -11 0 -18 7 -9 10 -8 11 6 5 10 -3
15 -9 12 -12z m5455 -7 c14 -19 14 -19 -2 -6 -10 7 -18 18 -18 24 0 6 1 8 3 6
1 -2 9 -13 17 -24z m-4919 -50 l-9 -40 -1 37 c-1 41 11 84 17 58 1 -9 -2 -33
-7 -55z m5291 -640 c2 -385 1 -752 -3 -815 -3 -63 -6 -96 -7 -73 -2 34 -8 47
-34 68 -18 15 -27 24 -20 20 8 -4 12 1 12 15 0 20 -1 20 -16 6 -8 -9 -20 -14
-25 -11 -5 4 -9 1 -9 -5 0 -6 -5 -8 -11 -4 -8 4 -2 12 15 21 31 16 32 18 6 20
-11 1 -20 -2 -20 -8 0 -5 -7 -9 -16 -9 -8 0 -12 5 -9 10 3 6 -1 10 -9 10 -8 0
-18 5 -22 12 -5 8 0 9 15 5 13 -3 20 -3 17 0 -3 4 -1 12 6 20 8 11 7 12 -6 7
-12 -4 -15 -2 -11 9 4 8 -1 17 -9 20 -9 4 -16 17 -16 29 0 19 -2 20 -10 8 -5
-8 -10 -10 -10 -5 0 6 5 16 12 23 10 10 8 16 -6 30 -17 16 -18 16 -11 -5 4
-14 2 -23 -4 -23 -17 0 -13 40 4 46 8 4 12 10 9 15 -3 5 -14 4 -25 -2 -12 -6
-23 -8 -26 -6 -2 3 5 8 16 12 12 3 19 11 16 16 -4 5 -8 19 -10 31 -3 12 -10
25 -16 29 -15 9 7 23 25 16 16 -6 27 35 16 54 -6 8 -14 5 -31 -11 l-24 -22 24
7 c15 4 21 3 17 -3 -3 -5 -15 -12 -26 -15 -11 -3 -18 -1 -14 4 5 8 -10 13 -29
10 -5 -1 -6 3 -2 8 3 6 13 8 23 5 13 -4 11 -1 -5 14 -12 11 -19 23 -15 27 4 5
-1 5 -10 2 -9 -3 -22 1 -30 11 -7 8 -8 13 -2 9 7 -4 12 3 12 18 0 20 -4 24
-19 20 -14 -5 -17 -2 -13 9 3 9 10 14 14 11 5 -3 11 -1 15 5 3 5 1 10 -5 10
-7 0 -10 6 -7 13 3 8 1 20 -5 28 -8 11 -9 10 -4 -4 5 -16 4 -16 -21 0 -14 10
-21 19 -14 21 7 2 1 14 -15 28 -15 15 -23 31 -20 39 15 38 16 48 2 25 l-15
-25 -1 25 c-1 23 -2 23 -10 5 -5 -13 -3 -26 6 -36 20 -23 17 -30 -9 -20 -13 5
-30 5 -37 1 -8 -5 -18 -6 -22 -4 -5 3 -7 0 -6 -7 5 -21 -20 -21 -41 0 -11 11
-23 16 -26 11 -10 -15 -25 -12 -25 6 0 8 -4 12 -10 9 -5 -3 -10 -1 -10 4 0 6
-5 11 -11 11 -6 0 -8 -10 -5 -22 l6 -23 -11 23 c-7 12 -16 22 -21 22 -5 0 -7
4 -3 9 3 5 1 12 -5 16 -6 4 -8 10 -6 14 3 4 -6 7 -20 7 -13 0 -24 -4 -24 -9 0
-4 -4 -6 -10 -2 -5 3 -6 13 -3 22 4 11 3 14 -5 9 -12 -7 -15 3 -13 34 0 10 -1
11 -5 2 -3 -6 -10 -10 -15 -6 -5 3 -9 1 -9 -5 0 -5 6 -11 13 -14 6 -2 10 -7 7
-10 -12 -13 -29 11 -32 46 -2 33 -8 41 -30 38 -3 0 -5 7 -3 17 1 9 -3 21 -9
25 -6 5 -2 6 10 2 15 -4 24 0 28 11 5 12 2 15 -9 10 -9 -3 -14 -2 -10 3 3 5 0
11 -7 13 -7 3 -8 10 -4 17 7 11 10 11 17 0 7 -11 11 -10 24 6 9 11 13 14 9 6
-5 -10 -3 -12 6 -6 10 6 10 10 -2 19 -13 10 -13 13 3 30 10 10 15 25 12 35 -4
14 -3 14 6 1 6 -9 11 -10 11 -3 0 6 2 17 5 25 3 7 -4 19 -16 26 -18 12 -20 11
-11 -4 12 -21 -7 -59 -48 -99 -29 -27 -30 -28 -30 -7 0 12 5 23 10 23 6 1 15
3 20 4 6 1 12 3 15 4 3 0 -5 11 -17 24 -25 24 -48 29 -61 12 -5 -6 -7 -4 -4 5
2 8 9 16 15 16 7 1 17 2 22 3 6 0 10 6 10 12 0 6 -7 8 -16 5 -14 -5 -15 -4 -4
9 10 12 10 15 -1 15 -10 0 -10 3 -1 12 12 12 -1 38 -20 38 -6 0 -5 -7 2 -15
11 -13 10 -14 -5 -8 -14 5 -17 3 -12 -10 4 -11 2 -14 -9 -10 -11 4 -12 9 -4
18 7 8 7 14 1 17 -5 1 0 14 11 28 13 16 19 18 15 8 -4 -12 -1 -18 8 -18 8 0
15 7 15 16 0 11 5 14 16 10 14 -5 15 -4 5 7 -9 11 -7 17 6 28 11 9 14 10 9 2
-4 -7 -3 -13 3 -13 15 0 58 50 72 82 6 15 15 25 20 22 5 -3 6 2 3 10 -3 9 -10
16 -14 16 -16 0 -17 25 -3 39 13 12 14 11 9 -7 -5 -15 -1 -24 13 -31 26 -14
24 -53 -2 -45 -17 5 -18 4 -3 -18 11 -17 12 -27 5 -38 -9 -13 -10 -13 -6 1 10
32 -8 40 -32 15 -21 -23 -21 -54 0 -41 5 4 9 1 9 -5 0 -7 -7 -10 -15 -6 -12 4
-14 0 -11 -21 3 -14 11 -30 17 -34 18 -11 20 -39 3 -39 -9 0 -13 4 -10 9 3 4
-5 7 -19 6 -17 -2 -22 1 -18 11 3 8 10 11 16 7 6 -4 7 -1 3 6 -5 7 -14 10 -21
7 -8 -3 -16 0 -18 7 -2 7 -7 9 -11 5 -4 -3 -1 -16 6 -29 18 -32 38 -53 38 -40
0 21 23 11 55 -25 18 -19 36 -31 39 -26 3 6 -1 12 -9 16 -8 3 -15 11 -15 17 0
8 4 8 15 -1 8 -6 20 -8 26 -4 8 5 10 2 6 -8 -6 -17 16 -19 30 -3 5 4 2 5 -6 0
-11 -6 -13 -4 -8 8 3 9 3 16 -1 16 -19 -3 -23 2 -12 16 11 13 10 14 -4 9 -10
-4 -15 -13 -12 -20 6 -16 -10 -19 -19 -3 -8 12 24 51 36 43 5 -3 9 0 9 6 0 6
5 8 13 4 7 -5 6 -1 -2 10 -14 17 -16 17 -27 1 -7 -10 -18 -14 -25 -9 -8 4 -10
3 -5 -5 4 -6 -1 -19 -10 -29 -17 -16 -18 -16 -11 1 5 13 -1 25 -17 40 -22 19
-22 22 -7 34 13 10 14 15 3 32 -7 12 -8 21 -3 21 6 0 12 -4 15 -9 9 -14 44 -1
42 16 0 9 4 18 11 20 12 5 12 -14 -1 -35 -4 -7 -5 -20 -2 -28 3 -8 1 -12 -4
-9 -6 3 -7 -1 -4 -10 6 -14 9 -14 28 3 15 14 27 17 41 12 19 -8 18 -11 -4 -14
-5 0 -12 -4 -16 -8 -9 -9 17 -5 33 5 7 5 10 12 8 16 -8 12 24 52 35 46 11 -7
11 -3 3 19 -3 9 -10 13 -15 10 -5 -3 -9 -1 -9 5 0 5 9 13 21 16 12 4 18 12 15
21 -5 12 -2 12 15 3 15 -8 18 -14 11 -21 -6 -6 -9 -23 -6 -37 5 -22 2 -27 -17
-28 -25 -2 -43 -23 -30 -36 5 -5 18 -4 30 2 17 9 21 9 21 -3 0 -8 10 -14 23
-14 28 0 54 -6 63 -14 3 -4 -5 -5 -19 -4 -26 3 -65 -19 -53 -31 4 -4 11 -1 16
7 12 19 50 20 51 1 0 -12 3 -10 8 4 5 11 6 26 4 33 -3 6 -1 12 5 12 15 0 22
-26 10 -38 -15 -15 0 -36 17 -22 9 8 15 8 20 0 8 -13 25 -13 25 1 0 5 -4 8 -8
5 -5 -3 -9 8 -9 24 0 17 4 30 9 30 5 0 6 5 3 11 -5 7 -13 4 -26 -7 -17 -15
-19 -15 -25 0 -3 9 -10 14 -14 11 -5 -3 -11 -1 -15 5 -9 14 18 13 33 -2 9 -9
15 -9 24 0 7 7 8 12 3 13 -6 0 -19 3 -30 5 -11 3 -26 6 -32 6 -17 2 -17 1 17
26 25 19 30 20 30 7 0 -9 -4 -13 -10 -10 -5 3 -10 1 -10 -4 0 -10 22 -16 43
-12 5 1 6 -3 2 -9 -3 -5 1 -10 9 -10 20 0 20 14 1 33 -14 14 -11 27 7 27 5 0
6 -5 2 -12 -5 -8 -2 -9 9 -5 10 3 17 2 17 -3 0 -5 9 -11 19 -15 17 -5 16 -9
-15 -39 -19 -18 -31 -36 -27 -39 3 -4 11 0 17 8 9 12 16 9 44 -16 29 -26 32
-32 20 -47 -12 -15 -11 -16 5 -3 15 12 17 11 17 -7 0 -21 17 -39 26 -29 6 5
-13 41 -35 70 -12 15 -12 17 0 17 19 1 64 39 55 47 -3 4 -12 1 -18 -5 -15 -15
-28 -15 -28 -1 0 5 5 7 10 4 7 -4 9 2 5 17 -5 18 -2 25 9 25 11 0 13 -4 6 -12
-6 -7 -3 -11 11 -12 12 -1 25 9 34 28 9 16 18 29 21 29 2 0 0 -9 -6 -20 -8
-15 -8 -20 2 -21 7 0 3 -5 -10 -11 -13 -6 -21 -17 -18 -24 3 -8 1 -16 -4 -19
-5 -3 -7 -12 -3 -20 3 -9 -1 -15 -8 -15 -8 0 -3 -9 11 -20 30 -23 48 -26 30
-5 -12 14 -7 20 14 16 5 -1 6 5 2 14 -3 9 -2 13 3 10 5 -3 12 -1 16 5 3 5 -1
10 -9 10 -19 0 -11 26 11 34 13 5 14 4 4 -8 -9 -11 -9 -15 1 -18 11 -4 11 -8
0 -21 -12 -14 -11 -16 7 -14 11 0 17 5 15 9 -3 4 0 8 7 8 8 0 9 3 0 13 -8 11
-6 18 9 32 11 10 20 13 20 7 0 -7 4 -12 8 -12 15 0 8 110 -8 121 -12 9 -12 10
3 5 16 -5 18 -1 17 32 -3 66 0 195 4 191 3 -2 6 -319 8 -704z m-341 672 c-10
-9 -11 -8 -5 6 3 10 9 15 12 12 3 -3 0 -11 -7 -18z m1820 12 c18 -11 -169 -11
-231 1 -34 6 -12 8 86 8 72 0 137 -4 145 -9z m-7242 -16 c30 -2 60 2 67 8 7 6
14 6 18 1 3 -6 -6 -13 -20 -16 -26 -7 -64 -36 -47 -36 5 0 9 -26 8 -57 -1 -32
3 -64 9 -72 8 -11 8 -13 -2 -7 -7 4 -15 1 -18 -8 -3 -8 -15 -18 -26 -22 -23
-7 -13 -21 19 -26 17 -2 20 -7 14 -17 -8 -13 -12 -13 -27 0 -16 13 -17 12 -10
-6 6 -16 5 -18 -5 -7 -19 18 -34 15 -18 -5 12 -14 12 -15 -1 -10 -8 4 -23 10
-32 13 -10 4 -18 12 -18 19 0 8 -12 27 -26 44 -25 30 -21 44 5 19 11 -11 12
-8 7 15 -4 16 -2 27 4 27 6 0 8 10 6 23 -20 98 -22 118 -15 123 5 3 9 -11 9
-31 0 -30 2 -34 14 -23 8 7 12 16 9 21 -2 4 4 7 14 7 17 1 17 1 1 14 -10 7
-15 16 -11 20 4 3 9 3 12 -1 3 -5 30 -9 60 -10z m5222 -6 c-10 -9 -11 -8 -5 6
3 10 9 15 12 12 3 -3 0 -11 -7 -18z m-4541 9 c0 -2 -8 -10 -17 -17 -16 -13
-17 -12 -4 4 13 16 21 21 21 13z m4670 -15 c0 -5 -7 -12 -16 -15 -14 -5 -15
-4 -4 9 14 17 20 19 20 6z m31 -14 c-10 -9 -11 -8 -5 6 3 10 9 15 12 12 3 -3
0 -11 -7 -18z m895 11 c13 -13 -175 -12 -188 0 -4 4 35 7 87 7 51 0 97 -3 101
-7z m-5546 -32 c0 -2 -9 -2 -20 1 -11 3 -20 9 -20 15 0 5 9 4 20 -2 11 -6 20
-12 20 -14z m-80 -16 c-11 -16 -26 -33 -33 -37 -12 -7 0 11 32 50 23 28 24 20
1 -13z m4420 20 c0 -5 -2 -10 -4 -10 -3 0 -8 5 -11 10 -3 6 -1 10 4 10 6 0 11
-4 11 -10z m411 -33 c-10 -9 -11 -8 -5 6 3 10 9 15 12 12 3 -3 0 -11 -7 -18z
m-228 -14 c-4 -10 -9 -11 -19 -2 -18 15 -18 15 5 15 11 0 17 -5 14 -13z m87
13 c0 -2 -7 -7 -16 -10 -8 -3 -12 -2 -9 4 6 10 25 14 25 6z m1865 -5 c28 -4
-26 -6 -120 -3 -93 2 -172 5 -174 8 -7 7 240 3 294 -5z m-2045 -11 c0 -5 -2
-10 -4 -10 -3 0 -8 5 -11 10 -3 6 -1 10 4 10 6 0 11 -4 11 -10z m117 -26 c-3
-3 -12 -4 -19 -1 -8 3 -5 6 6 6 11 1 17 -2 13 -5z m-57 -12 c0 -5 -7 -9 -15
-9 -8 0 -12 4 -9 9 3 4 9 8 15 8 5 0 9 -4 9 -8z m90 -18 c0 -8 -4 -12 -10 -9
-5 3 -10 10 -10 16 0 5 5 9 10 9 6 0 10 -7 10 -16z m25 6 c3 -5 1 -10 -4 -10
-6 0 -11 5 -11 10 0 6 2 10 4 10 3 0 8 -4 11 -10z m107 -4 c7 4 8 2 4 -4 -4
-7 -2 -12 5 -12 7 0 9 -3 6 -6 -8 -9 -37 15 -36 30 0 7 2 6 6 -2 2 -6 10 -9
15 -6z m-315 -26 c1 -16 -1 -17 -12 -7 -7 6 -11 15 -8 20 8 13 19 7 20 -13z
m38 11 c-3 -5 -1 -12 4 -15 5 -4 12 -2 16 4 3 5 11 10 18 10 6 0 2 -6 -8 -14
-14 -10 -23 -11 -37 -3 -12 8 -14 13 -5 19 16 10 19 10 12 -1z m115 -12 c-11
-8 -12 -12 -2 -16 6 -2 12 -11 12 -18 0 -8 8 -18 17 -24 10 -5 15 -12 12 -15
-3 -3 -19 10 -36 28 -29 33 -28 56 2 56 5 0 3 -5 -5 -11z m-256 -7 c3 -5 -1
-9 -9 -9 -8 0 -12 4 -9 9 3 4 7 8 9 8 2 0 6 -4 9 -8z m306 -17 c-7 -9 -15 -13
-19 -10 -3 3 1 10 9 15 21 14 24 12 10 -5z m-110 0 c0 -2 -10 -13 -22 -24 -15
-14 -18 -24 -11 -33 12 -16 -6 -53 -26 -53 -8 0 -16 10 -17 23 -2 12 1 22 7
22 6 0 8 7 5 16 -3 8 -2 13 3 10 4 -3 19 6 31 19 23 25 30 29 30 20z m226 -27
c12 -14 13 -18 3 -10 -9 6 -18 10 -21 7 -2 -3 -5 2 -5 10 0 19 0 19 23 -7z
m285 5 c10 -11 11 -17 3 -20 -7 -2 -10 -13 -7 -23 4 -14 0 -20 -11 -20 -9 0
-16 -5 -16 -12 0 -6 -3 -9 -6 -6 -3 4 0 16 6 28 15 27 -4 55 -20 30 -8 -12
-10 -12 -16 3 -9 25 -2 28 29 12 28 -14 36 -8 15 13 -8 8 -8 12 -1 12 6 0 17
-7 24 -17z m-205 -85 c-17 -32 -17 -32 -13 -5 3 18 -1 31 -12 37 -10 6 -11 10
-3 10 10 0 10 5 1 23 -10 20 -8 19 16 -5 28 -26 28 -27 11 -60z m-190 41 c-18
-14 -25 -27 -21 -38 5 -13 4 -13 -6 -4 -10 10 -7 19 16 43 16 16 31 28 33 25
3 -3 -7 -14 -22 -26z m149 21 c3 -5 1 -10 -4 -10 -6 0 -11 5 -11 10 0 6 2 10
4 10 3 0 8 -4 11 -10z m-199 -26 c1 -9 0 -13 -4 -10 -3 4 -7 14 -8 22 -1 9 0
13 4 10 3 -4 7 -14 8 -22z m-286 6 c0 -5 -2 -10 -4 -10 -3 0 -8 5 -11 10 -3 6
-1 10 4 10 6 0 11 -4 11 -10z m670 -25 c-7 -9 -15 -13 -17 -11 -6 6 20 36 26
30 2 -2 -2 -10 -9 -19z m-537 -10 c-3 -9 -8 -14 -10 -11 -3 3 -2 9 2 15 9 16
15 13 8 -4z m149 -27 c-9 -9 -12 -7 -12 12 0 19 3 21 12 12 9 -9 9 -15 0 -24z
m210 0 c-7 -7 -12 -8 -12 -2 0 14 12 26 19 19 2 -3 -1 -11 -7 -17z m140 0 c-7
-7 -12 -8 -12 -2 0 14 12 26 19 19 2 -3 -1 -11 -7 -17z m-4292 -39 c82 -1 80
-2 -27 -19 l-73 -12 0 -34 0 -34 -102 -1 -103 -2 65 -9 c36 -5 98 -6 138 -2
62 5 71 4 66 -10 -4 -11 -17 -14 -50 -12 -32 2 -44 0 -44 -10 0 -10 -16 -14
-60 -14 -41 0 -60 -4 -61 -12 0 -10 -2 -10 -6 0 -2 6 -9 9 -15 6 -5 -4 -44 -5
-87 -4 -42 1 -128 4 -191 5 -63 2 -130 4 -147 4 -22 1 -33 6 -33 15 0 8 -4 18
-10 21 -6 3 -7 -1 -4 -9 5 -12 -1 -16 -21 -16 -18 0 -25 4 -22 13 3 8 -3 13
-17 14 -11 0 -15 -1 -8 -4 6 -3 12 -11 12 -19 0 -9 -4 -12 -10 -9 -5 3 -10 2
-10 -4 0 -6 -7 -8 -16 -4 -9 3 -14 15 -12 32 l3 26 183 1 c100 0 185 4 189 7
3 4 -80 7 -185 7 l-192 0 0 34 c0 32 2 34 45 40 24 4 61 4 82 1 27 -5 34 -4
23 4 -27 19 63 20 700 10z m3360 7 c0 -3 -4 -8 -10 -11 -5 -3 -10 -1 -10 4 0
6 5 11 10 11 6 0 10 -2 10 -4z m695 -15 c-3 -6 -11 -11 -17 -11 -6 0 -6 6 2
15 14 17 26 13 15 -4z m-3935 -34 c0 -9 -23 -18 -64 -25 -75 -14 -96 -15 -96
-4 0 5 14 7 30 6 17 -1 30 2 30 7 0 5 20 9 45 9 25 0 45 5 45 10 0 6 2 10 5
10 3 0 5 -6 5 -13z m-175 -37 c3 -5 1 -10 -4 -10 -6 0 -11 5 -11 10 0 6 2 10
4 10 3 0 8 -4 11 -10z m3432 -5 c0 -8 -4 -12 -9 -9 -5 3 -6 10 -3 15 9 13 12
11 12 -6z m-3244 -2 c-7 -2 -19 -2 -25 0 -7 3 -2 5 12 5 14 0 19 -2 13 -5z
m-60 -10 c-7 -2 -19 -2 -25 0 -7 3 -2 5 12 5 14 0 19 -2 13 -5z m-1372 -18 c0
-5 -9 -11 -21 -13 -15 -3 -18 1 -14 13 7 17 35 17 35 0z m4702 0 c-3 -9 -8
-14 -10 -11 -3 3 -2 9 2 15 9 16 15 13 8 -4z m217 -35 c0 -5 -4 -10 -10 -10
-5 0 -10 5 -10 10 0 6 5 10 10 10 6 0 10 -4 10 -10z m-20 -74 c0 -3 -4 -8 -10
-11 -5 -3 -10 -1 -10 4 0 6 5 11 10 11 6 0 10 -2 10 -4z m-27 -40 c4 -10 1
-13 -8 -9 -8 3 -12 9 -9 14 7 12 11 11 17 -5z m57 -91 c14 -19 14 -19 -2 -6
-10 7 -18 18 -18 24 0 6 1 8 3 6 1 -2 9 -13 17 -24z m126 -112 c-3 -4 -6 -1
-6 6 0 7 -9 3 -20 -10 l-20 -24 16 34 c14 29 18 31 26 17 6 -10 7 -20 4 -23z
m214 -47 c0 -3 -7 -12 -16 -21 -13 -13 -14 -19 -5 -28 7 -7 11 -7 9 -2 -1 6 5
21 14 34 15 22 20 23 43 13 17 -8 25 -19 25 -38 0 -16 5 -24 12 -22 7 3 19 -2
27 -10 13 -13 12 -16 -4 -28 -20 -15 -38 -15 -35 0 2 10 -51 66 -62 66 -5 0
-7 -4 -3 -9 3 -6 -2 -14 -11 -19 -12 -7 -15 -16 -10 -28 7 -17 9 -16 19 9 l12
29 20 -23 20 -22 -24 13 c-13 6 -21 8 -18 3 3 -4 -1 -16 -8 -26 -13 -18 -14
-18 -24 2 -6 11 -11 29 -11 40 0 10 -5 21 -10 23 -6 2 -2 13 10 26 20 21 30
27 30 18z m-143 -21 c0 -8 -4 -12 -9 -9 -5 3 -6 10 -3 15 9 13 12 11 12 -6z
m35 -7 c-7 -7 -12 -8 -12 -2 0 14 12 26 19 19 2 -3 -1 -11 -7 -17z m41 -23
c-7 -21 -12 -19 -10 4 0 11 5 18 9 15 4 -3 5 -11 1 -19z m14 -37 c-3 -7 -5 -2
-5 12 0 14 2 19 5 13 2 -7 2 -19 0 -25z m90 -38 c-3 -11 5 -28 19 -41 13 -12
24 -26 24 -31 0 -12 -45 33 -57 58 -12 22 -6 47 9 38 5 -3 8 -14 5 -24z
m-6542 11 c3 -5 1 -12 -5 -16 -5 -3 -10 1 -10 9 0 18 6 21 15 7z m6465 -1 c0
-5 -2 -10 -4 -10 -3 0 -8 5 -11 10 -3 6 -1 10 4 10 6 0 11 -4 11 -10z m120
-36 c0 -8 -4 -12 -10 -9 -5 3 -10 10 -10 16 0 5 5 9 10 9 6 0 10 -7 10 -16z
m-20 -48 c0 -3 -4 -8 -10 -11 -5 -3 -10 -1 -10 4 0 6 5 11 10 11 6 0 10 -2 10
-4z m71 -33 c-12 -20 -14 -14 -5 12 4 9 9 14 11 11 3 -2 0 -13 -6 -23z m-6
-73 c-3 -5 -12 -10 -18 -10 -7 0 -6 4 3 10 19 12 23 12 15 0z m-6436 -101
c-21 -12 -35 7 -19 26 12 15 14 15 23 -1 6 -11 5 -19 -4 -25z m6561 -33 c0 -2
-7 -7 -16 -10 -8 -3 -12 -2 -9 4 6 10 25 14 25 6z m36 -61 c1 -8 -2 -13 -7 -9
-5 3 -9 12 -9 21 0 19 13 9 16 -12z m-3819 -448 c-1 -84 -3 -13 -3 158 0 171
2 239 3 152 2 -87 2 -227 0 -310z m3803 420 c0 -8 -3 -7 -9 2 -7 11 -11 10
-20 -5 -6 -11 -11 -14 -11 -8 0 14 22 34 32 28 4 -3 8 -11 8 -17z m27 -51 c-5
-15 -24 -18 -24 -3 0 8 6 14 14 14 7 0 12 -5 10 -11z m2246 -73 c-95 -2 -251
-2 -345 0 -95 1 -18 3 172 3 190 0 267 -2 173 -3z m235 0 c-10 -2 -26 -2 -35
0 -10 3 -2 5 17 5 19 0 27 -2 18 -5z m59 1 c-3 -3 -12 -4 -19 -1 -8 3 -5 6 6
6 11 1 17 -2 13 -5z m-759 -31 c-10 -2 -26 -2 -35 0 -10 3 -2 5 17 5 19 0 27
-2 18 -5z m95 0 c-13 -2 -35 -2 -50 0 -16 2 -5 4 22 4 28 0 40 -2 28 -4z m144
1 c-3 -3 -12 -4 -19 -1 -8 3 -5 6 6 6 11 1 17 -2 13 -5z m-1870 -66 c-3 -8 -6
-5 -6 6 -1 11 2 17 5 13 3 -3 4 -12 1 -19z m0 -55 c-3 -10 -5 -4 -5 12 0 17 2
24 5 18 2 -7 2 -21 0 -30z m-4007 -128 c0 -19 -80 -21 -99 -2 -11 10 -12 9 -6
-3 7 -12 6 -13 -6 -3 -10 8 -61 14 -140 16 -100 2 -87 3 64 5 160 2 187 0 187
-13z m160 -5 c0 -15 -7 -20 -25 -20 -18 0 -25 5 -25 20 0 15 7 20 25 20 18 0
25 -5 25 -20z"/>
<path d="M7581 3504 c0 -11 3 -14 6 -6 3 7 2 16 -1 19 -3 4 -6 -2 -5 -13z"/>
<path d="M7592 3450 c0 -14 2 -19 5 -12 2 6 2 18 0 25 -3 6 -5 1 -5 -13z"/>
<path d="M1490 3651 c0 -5 -3 -17 -7 -27 -4 -12 -3 -15 5 -10 6 4 21 2 31 -4
20 -10 20 -10 3 20 -17 29 -32 39 -32 21z"/>
<path d="M1188 3473 c-45 -53 -19 -80 35 -37 29 23 33 30 22 41 -18 18 -39 16
-57 -4z"/>
<path d="M1240 3364 c0 -8 5 -12 10 -9 6 3 10 10 10 16 0 5 -4 9 -10 9 -5 0
-10 -7 -10 -16z"/>
<path d="M1280 2955 c7 -9 15 -13 17 -11 7 7 -7 26 -19 26 -6 0 -6 -6 2 -15z"/>
<path d="M6482 2271 c-11 -6 -10 -10 0 -19 11 -8 14 -7 14 9 0 10 0 19 -1 19
0 0 -6 -4 -13 -9z"/>
<path d="M6697 2224 c7 -3 9 -13 6 -22 -6 -15 -5 -15 11 -3 13 11 14 16 4 22
-7 5 -17 8 -23 8 -5 0 -5 -3 2 -5z"/>
<path d="M6960 2185 c0 -2 10 -10 23 -16 20 -11 21 -11 8 4 -13 16 -31 23 -31
12z"/>
<path d="M6230 2171 c0 -6 4 -12 8 -15 5 -3 9 1 9 9 0 8 -4 15 -9 15 -4 0 -8
-4 -8 -9z"/>
<path d="M6477 2150 c-3 -11 -1 -20 4 -20 5 0 9 4 9 10 0 5 8 6 18 3 16 -6 16
-6 0 10 -21 22 -25 21 -31 -3z"/>
<path d="M6805 2131 c-5 -10 -5 -16 3 -19 6 -2 8 -11 5 -20 -6 -15 -5 -16 12
-2 17 14 18 13 12 -2 -4 -12 -2 -15 7 -12 13 5 31 -24 21 -34 -3 -3 -5 0 -5 6
0 7 -7 12 -15 12 -8 0 -15 -5 -15 -11 0 -5 4 -8 9 -4 5 3 12 1 16 -5 3 -5 1
-10 -4 -10 -6 0 -11 -6 -11 -12 0 -7 15 3 32 22 31 34 32 35 10 38 -12 2 -22
7 -22 12 0 5 -9 11 -19 15 -11 3 -21 14 -23 23 -3 14 -5 15 -13 3z"/>
<path d="M6187 2118 c8 -13 11 -27 16 -64 3 -19 28 -54 39 -54 2 0 4 11 4 25
1 14 -2 25 -6 25 -4 0 -15 18 -24 40 -9 22 -21 40 -27 40 -6 0 -7 -5 -2 -12z"/>
<path d="M6963 2116 c-4 -7 -18 -18 -30 -25 -13 -6 -23 -19 -23 -27 0 -8 4
-13 9 -10 17 11 23 -56 7 -82 -4 -7 -2 -12 3 -12 6 0 11 5 11 10 0 6 11 15 24
19 16 7 23 17 22 33 -1 13 2 28 7 35 5 7 1 15 -12 22 -23 13 -17 46 6 37 8 -3
11 -1 8 4 -9 14 -23 12 -32 -4z m3 -38 c12 -18 13 -51 3 -68 -5 -8 -9 -10 -9
-5 0 6 -5 3 -11 -5 -8 -12 -9 -11 -6 5 2 11 9 19 15 18 7 -2 12 2 12 7 0 6 -6
10 -14 10 -8 0 -17 7 -20 16 -11 29 15 47 30 22z"/>
<path d="M6567 2097 c-3 -9 -10 -17 -14 -16 -22 4 -43 -2 -43 -12 0 -22 -33
-38 -55 -28 -20 10 -20 10 -1 -5 13 -11 23 -13 30 -6 16 16 30 12 16 -5 -11
-13 -10 -14 4 -9 10 4 15 12 13 18 -2 6 5 20 15 31 18 19 19 19 12 1 -5 -13
-4 -17 4 -12 7 4 9 -3 6 -21 l-4 -28 14 25 c10 17 11 27 4 31 -6 4 -7 12 -3
18 9 15 36 -19 27 -34 -3 -5 4 -2 16 9 18 16 19 20 7 33 -8 8 -19 12 -24 9 -5
-4 -11 -1 -13 6 -3 8 -7 6 -11 -5z m43 -28 c0 -6 -4 -7 -10 -4 -5 3 -10 11
-10 16 0 6 5 7 10 4 6 -3 10 -11 10 -16z"/>
<path d="M6420 2091 c0 -6 4 -13 10 -16 6 -3 7 1 4 9 -7 18 -14 21 -14 7z"/>
<path d="M6679 2089 c-6 -4 1 -6 15 -6 15 0 28 2 30 6 3 4 -4 7 -15 7 -11 0
-25 -3 -30 -7z"/>
<path d="M6730 2061 c0 -6 4 -13 10 -16 6 -3 7 1 4 9 -7 18 -14 21 -14 7z"/>
<path d="M6530 2034 c0 -8 5 -12 10 -9 6 4 8 11 5 16 -9 14 -15 11 -15 -7z"/>
<path d="M6417 2034 c-4 -4 -7 -14 -7 -23 0 -8 -9 -25 -21 -37 -17 -18 -19
-26 -9 -41 11 -17 11 -17 6 1 -6 18 9 46 25 46 5 0 6 -8 3 -17 -4 -12 -3 -14
3 -6 5 7 20 14 33 16 13 2 26 10 28 17 3 7 0 10 -7 6 -22 -14 -51 -15 -51 -1
0 7 6 15 13 18 8 3 9 8 1 16 -6 6 -13 8 -17 5z"/>
<path d="M6296 2007 c-3 -12 -5 -24 -5 -26 0 -2 -5 -8 -13 -12 -10 -7 -10 -9
2 -10 8 -1 18 -1 22 0 4 0 4 -7 1 -16 -4 -10 -2 -14 4 -10 19 12 42 -3 35 -21
-5 -15 -3 -14 13 1 14 15 15 21 6 27 -10 6 -10 9 -1 15 6 4 9 14 6 22 -3 8 -2
11 4 8 5 -3 8 4 7 15 -1 20 -8 20 -56 2 -9 -3 -12 -1 -7 6 3 6 2 13 -3 16 -5
3 -11 -4 -15 -17z m39 -26 c9 -16 -9 -20 -23 -5 -10 12 -10 14 2 14 8 0 17 -4
21 -9z"/>
<path d="M6622 2010 c0 -14 2 -19 5 -12 2 6 2 18 0 25 -3 6 -5 1 -5 -13z"/>
<path d="M6883 2024 c-7 -3 -10 -11 -7 -19 3 -7 0 -15 -8 -18 -7 -2 -1 -3 13
-1 23 3 26 0 23 -19 -4 -21 -4 -21 5 -2 14 30 13 45 -5 45 -8 0 -12 5 -9 10 7
11 6 11 -12 4z"/>
<path d="M6650 2009 c0 -5 5 -7 10 -4 6 3 10 8 10 11 0 2 -4 4 -10 4 -5 0 -10
-5 -10 -11z"/>
<path d="M6586 1997 c3 -10 9 -15 12 -12 3 3 0 11 -7 18 -10 9 -11 8 -5 -6z"/>
<path d="M6640 1981 c0 -5 5 -13 10 -16 6 -3 10 -2 10 4 0 5 -4 13 -10 16 -5
3 -10 2 -10 -4z"/>
<path d="M6795 1981 c-3 -5 -1 -12 5 -16 5 -3 10 1 10 9 0 18 -6 21 -15 7z"/>
<path d="M6475 1960 c-10 -11 -14 -20 -9 -20 5 0 15 9 22 20 7 11 11 20 9 20
-2 0 -12 -9 -22 -20z"/>
<path d="M6850 1960 c-8 -5 -10 -10 -5 -10 6 0 17 5 25 10 8 5 11 10 5 10 -5
0 -17 -5 -25 -10z"/>
<path d="M6946 1944 c-9 -23 -4 -24 17 -2 13 14 14 18 3 18 -8 0 -17 -7 -20
-16z"/>
<path d="M6277 1928 c-2 -8 1 -25 8 -38 l12 -23 18 27 c10 15 15 29 12 32 -3
3 -8 -4 -12 -15 -3 -12 -11 -21 -17 -21 -5 0 -8 6 -5 13 3 8 2 19 -3 26 -5 10
-8 10 -13 -1z"/>
<path d="M6435 1930 c3 -5 8 -10 11 -10 2 0 4 5 4 10 0 6 -5 10 -11 10 -5 0
-7 -4 -4 -10z"/>
<path d="M6870 1925 c0 -8 5 -15 11 -15 5 0 7 5 4 10 -3 6 -2 10 4 10 5 0 11
-4 13 -9 2 -5 9 -3 16 5 11 12 8 14 -18 14 -20 0 -30 -5 -30 -15z"/>
<path d="M6980 1913 c0 -5 5 -15 10 -23 8 -12 10 -11 10 8 0 12 -4 22 -10 22
-5 0 -10 -3 -10 -7z"/>
<path d="M6243 1898 c2 -7 0 -24 -4 -38 -8 -22 -7 -23 4 -8 12 15 14 15 24 -1
9 -14 9 -21 0 -30 -8 -8 -8 -11 0 -11 16 0 26 32 12 41 -6 4 -8 12 -4 19 5 9
4 11 -3 6 -8 -5 -12 0 -12 13 0 12 -5 21 -11 21 -6 0 -9 -6 -6 -12z"/>
<path d="M6386 1885 c-16 -12 -17 -15 -4 -15 9 0 18 7 22 15 7 18 6 18 -18 0z"/>
<path d="M6436 1865 c-3 -8 -1 -15 4 -15 6 0 10 7 10 15 0 8 -2 15 -4 15 -2 0
-6 -7 -10 -15z"/>
<path d="M6977 1864 c6 -15 23 -19 23 -5 0 5 -7 11 -14 14 -10 4 -13 1 -9 -9z"/>
<path d="M6340 1865 c0 -10 29 -24 34 -17 3 6 -3 12 -14 15 -11 3 -20 4 -20 2z"/>
<path d="M6835 1809 c-11 -16 -1 -19 13 -3 7 8 8 14 3 14 -5 0 -13 -5 -16 -11z"/>
<path d="M6549 1783 c-13 -16 -12 -17 4 -4 9 7 17 15 17 17 0 8 -8 3 -21 -13z"/>
<path d="M6777 1785 c3 -8 9 -12 14 -9 12 7 11 11 -5 17 -10 4 -13 1 -9 -8z"/>
<path d="M6687 1783 c-4 -3 -7 -11 -7 -17 0 -6 5 -5 12 2 6 6 9 14 7 17 -3 3
-9 2 -12 -2z"/>
<path d="M6650 1770 c-9 -6 -10 -10 -3 -10 6 0 15 5 18 10 8 12 4 12 -15 0z"/>
<path d="M6295 1760 c3 -5 11 -10 16 -10 6 0 7 5 4 10 -3 6 -11 10 -16 10 -6
0 -7 -4 -4 -10z"/>
<path d="M6460 1746 c14 -14 13 -29 -2 -20 -7 4 -8 3 -4 -5 10 -15 29 -3 22
14 -3 8 0 16 7 18 7 3 2 4 -10 4 -15 -1 -19 -5 -13 -11z"/>
<path d="M6580 1756 c0 -7 40 -14 44 -7 3 4 -6 8 -20 9 -13 1 -24 0 -24 -2z"/>
<path d="M6887 1739 c4 -13 8 -18 11 -10 2 7 -1 18 -6 23 -8 8 -9 4 -5 -13z"/>
<path d="M6715 1741 c-3 -5 -1 -12 4 -15 5 -3 11 1 15 9 6 16 -9 21 -19 6z"/>
<path d="M6400 1725 c0 -8 2 -15 4 -15 2 0 6 7 10 15 3 8 1 15 -4 15 -6 0 -10
-7 -10 -15z"/>
<path d="M6375 1703 c2 -10 4 -22 4 -26 1 -5 5 -6 10 -3 11 7 3 46 -9 46 -5 0
-7 -8 -5 -17z"/>
<path d="M6419 1688 c-6 -13 -8 -20 -4 -16 4 4 13 0 20 -9 8 -11 14 -13 19 -5
4 7 2 12 -3 12 -6 0 -11 5 -11 11 0 5 6 7 13 3 8 -5 8 -2 -2 9 -17 22 -18 21
-32 -5z"/>
<path d="M6477 1680 c3 -11 9 -17 14 -14 14 8 10 34 -5 34 -9 0 -12 -7 -9 -20z"/>
<path d="M6501 1659 c-13 -18 -19 -29 -13 -25 6 3 12 3 15 -1 2 -5 2 -2 1 5
-2 6 0 12 5 12 5 0 11 9 14 20 7 27 5 25 -22 -11z"/>
<path d="M6641 1657 c-8 -10 -4 -19 19 -35 20 -15 31 -18 36 -10 5 7 3 8 -6 3
-9 -5 -10 -2 -6 13 4 11 2 23 -4 27 -5 3 -10 -1 -10 -10 0 -9 -5 -13 -11 -10
-6 4 -8 13 -5 21 7 18 2 18 -13 1z"/>
<path d="M6690 1660 c0 -5 5 -10 10 -10 6 0 10 5 10 10 0 6 -4 10 -10 10 -5 0
-10 -4 -10 -10z"/>
<path d="M6769 1633 c-13 -16 -12 -17 4 -4 16 13 21 21 13 21 -2 0 -10 -8 -17
-17z"/>
<path d="M6948 1608 c8 -10 10 -23 6 -30 -6 -9 -3 -9 9 1 10 8 16 14 15 15 -2
1 -12 8 -23 16 -18 14 -19 14 -7 -2z"/>
<path d="M6732 1585 c4 -4 3 -16 -2 -25 -13 -25 14 -35 32 -12 12 16 11 16 -6
2 -18 -14 -19 -13 -14 7 4 13 1 26 -5 30 -7 3 -9 3 -5 -2z"/>
<path d="M6975 1550 c-3 -5 -1 -10 4 -10 6 0 11 5 11 10 0 6 -2 10 -4 10 -3 0
-8 -4 -11 -10z"/>
<path d="M6781 1543 c3 -19 -2 -33 -12 -33 -5 0 -7 5 -3 12 4 7 3 8 -4 4 -9
-5 -8 -12 0 -26 10 -15 10 -22 0 -32 -6 -6 -15 -8 -19 -4 -4 4 -1 11 6 15 9 6
10 11 2 15 -6 4 -11 2 -11 -4 0 -7 -7 -10 -15 -6 -21 8 -19 0 7 -24 28 -26 32
-25 53 6 9 15 12 23 6 20 -6 -4 -11 0 -11 9 0 9 4 13 10 10 6 -4 7 1 3 11 -5
13 -3 15 8 9 12 -8 12 -6 0 8 -14 18 -22 22 -20 10z"/>
<path d="M6813 1505 c-3 -9 -3 -18 -1 -21 3 -3 8 4 11 16 6 23 -1 27 -10 5z"/>
<path d="M6869 1503 c-1 -5 -1 -11 0 -15 2 -12 -14 -9 -28 5 -8 7 -11 7 -8 1
8 -13 -20 -40 -30 -31 -3 4 -12 -1 -19 -11 -24 -31 -15 -33 23 -5 20 15 43 28
52 28 9 0 15 6 13 14 -2 9 3 11 13 7 9 -3 13 -2 10 4 -7 12 -24 13 -26 3z"/>
<path d="M6843 1428 c0 -30 1 -30 10 -10 7 15 7 26 0 33 -6 6 -10 -1 -10 -23z"/>
<path d="M6970 1410 c0 -5 5 -10 10 -10 6 0 10 5 10 10 0 6 -4 10 -10 10 -5 0
-10 -4 -10 -10z"/>
<path d="M6865 1399 c-11 -17 25 -51 41 -38 8 6 14 6 18 0 4 -5 2 -12 -4 -16
-6 -4 -4 -12 5 -22 9 -8 19 -12 23 -9 3 4 0 11 -8 16 -11 7 -11 11 -1 23 8 11
9 17 1 22 -6 3 -7 12 -3 18 3 7 -2 5 -13 -4 -23 -19 -46 -19 -52 0 -3 9 0 11
8 6 9 -5 11 -4 6 3 -9 15 -13 15 -21 1z"/>
<path d="M6799 1341 c6 -10 7 -21 4 -25 -3 -3 -1 -6 6 -6 7 0 10 -4 6 -9 -12
-20 16 -21 40 -2 17 13 22 22 14 26 -8 6 -7 10 2 16 10 6 11 9 2 9 -7 0 -18
-9 -25 -20 -16 -25 -28 -26 -28 -1 0 10 -7 21 -15 25 -12 4 -13 2 -6 -13z"/>
<path d="M6984 1310 c0 -13 4 -16 10 -10 7 7 7 13 0 20 -6 6 -10 3 -10 -10z"/>
<path d="M6847 1269 c-17 -19 -15 -39 4 -39 6 0 8 4 5 9 -3 5 1 14 9 21 16 13
20 31 8 29 -5 0 -16 -9 -26 -20z"/>
<path d="M6851 1211 c-9 -6 -10 -11 -3 -15 6 -4 8 -14 5 -23 -6 -15 -5 -16 9
-3 10 9 12 17 6 21 -6 4 -7 12 -4 18 8 13 6 14 -13 2z"/>
<path d="M6956 1117 c3 -10 9 -15 12 -12 3 3 0 11 -7 18 -10 9 -11 8 -5 -6z"/>
<path d="M6977 1036 c-3 -8 1 -20 9 -27 12 -10 14 -8 11 9 -4 28 -13 36 -20
18z"/>
<path d="M2451 2074 c0 -11 3 -14 6 -6 3 7 2 16 -1 19 -3 4 -6 -2 -5 -13z"/>
<path d="M2167 2033 c18 -2 50 -2 70 0 21 2 7 4 -32 4 -38 0 -55 -2 -38 -4z"/>
<path d="M6586 1611 c-3 -5 1 -11 9 -14 9 -4 12 -1 8 9 -6 16 -10 17 -17 5z"/>
<path d="M230 1229 c0 -5 5 -7 10 -4 6 3 10 8 10 11 0 2 -4 4 -10 4 -5 0 -10
-5 -10 -11z"/>
<path d="M11367 6099 c7 -7 15 -10 18 -7 3 3 -2 9 -12 12 -14 6 -15 5 -6 -5z"/>
<path d="M101 1398 c-1 -28 13 -45 24 -28 4 6 12 7 18 3 7 -4 6 0 -2 10 -14
18 -26 23 -16 8 3 -5 1 -12 -4 -15 -5 -4 -12 6 -14 21 l-4 28 -2 -27z"/>
<path d="M7196 747 c3 -10 9 -15 12 -12 3 3 0 11 -7 18 -10 9 -11 8 -5 -6z"/>
</g>
</svg>
