<?xml version="1.0" standalone="no"?>
<!DOCTYPE svg PUBLIC "-//W3C//DTD SVG 20010904//EN"
 "http://www.w3.org/TR/2001/REC-SVG-20010904/DTD/svg10.dtd">
<svg version="1.0" xmlns="http://www.w3.org/2000/svg"
 width="1920.000000pt" height="1080.000000pt" viewBox="0 0 1920.000000 1080.000000"
 preserveAspectRatio="xMidYMid meet">

<g transform="translate(0.000000,1080.000000) scale(0.100000,-0.100000)"
fill="#000000" stroke="none">
<path d="M0 5400 l0 -5400 9600 0 9600 0 0 5400 0 5400 -9600 0 -9600 0 0
-5400z m13210 210 l0 -4130 770 0 770 0 0 -84 c0 -88 4 -96 51 -96 16 0 19 7
19 40 0 36 -2 40 -25 40 l-25 0 0 2674 c0 1471 4 2677 8 2680 32 20 32 12 39
-2632 l6 -2622 184 0 183 0 0 -34 0 -33 -126 -6 c-69 -3 -127 -7 -130 -9 -6
-7 -8 -118 -2 -124 3 -3 36 -10 72 -15 64 -10 511 -9 518 1 2 3 2 33 0 67 l-4
62 -41 6 c-23 3 -80 9 -127 13 l-85 7 -3 32 -3 33 873 1 c480 1 1064 1 1297 0
l425 -1 28 -27 c32 -31 37 -79 12 -118 -102 -156 -853 -328 -1934 -444 -452
-49 -462 -50 -520 -55 -152 -14 -303 -27 -480 -41 -107 -9 -213 -18 -235 -20
-22 -2 -64 -4 -92 -4 -29 -1 -53 -5 -53 -9 0 -5 21 -8 48 -7 30 1 53 -4 65
-14 10 -8 17 -10 15 -4 -2 6 2 11 7 11 6 0 9 -5 7 -11 -2 -7 2 -6 11 1 27 23
30 -12 4 -46 -8 -10 -13 -10 -25 0 -13 11 -14 11 -8 0 14 -23 87 -48 83 -29
-1 6 5 12 13 12 25 2 32 -6 18 -22 -7 -8 -17 -25 -23 -37 -7 -11 -17 -20 -24
-18 -7 1 -10 -2 -7 -6 3 -5 -3 -17 -13 -26 -21 -19 -28 -13 -26 24 0 15 6 24
14 22 7 -1 10 2 6 8 -5 8 -11 8 -19 1 -7 -6 -16 -7 -20 -3 -4 4 -6 0 -4 -8 1
-8 -2 -14 -8 -13 -6 1 -11 -4 -11 -12 0 -8 3 -12 7 -10 4 3 19 -9 34 -25 23
-27 25 -34 5 -32 -3 1 -6 -6 -6 -14 0 -11 4 -11 19 3 16 14 22 12 20 -8 -1 -3
5 -6 13 -6 8 0 12 4 9 9 -3 4 0 8 6 8 18 0 42 28 30 35 -5 3 -10 13 -10 21 0
8 5 12 10 9 6 -4 8 -10 5 -15 -3 -4 2 -14 11 -21 8 -7 14 -8 12 -2 -2 6 2 11
7 12 6 1 10 -7 10 -16 0 -12 -7 -18 -22 -17 -12 1 -21 -4 -20 -10 1 -6 -4 -10
-11 -8 -6 1 -11 -4 -10 -10 2 -9 -8 -12 -28 -11 -21 2 -31 -2 -31 -11 0 -8 8
-13 19 -11 25 5 23 -4 -4 -15 -19 -7 -19 -9 -5 -9 10 -1 16 -5 13 -9 -3 -5 1
-9 8 -9 8 0 13 7 11 16 -4 25 15 43 31 30 8 -6 11 -15 8 -20 -3 -5 0 -8 8 -7
7 2 12 -2 11 -8 -1 -6 5 -11 12 -11 10 0 12 4 5 12 -5 7 -7 15 -3 18 9 10 34
-14 26 -26 -4 -6 -1 -7 7 -2 15 9 125 16 116 7 -9 -8 -53 -13 -376 -38 -36 -2
-85 -7 -110 -9 -50 -5 -138 -11 -275 -20 -49 -3 -112 -8 -140 -12 -44 -5 -48
-4 -37 10 10 12 10 17 1 23 -7 4 -9 3 -6 -3 16 -25 -33 -32 -298 -47 -154 -9
-311 -18 -350 -21 -193 -13 -723 -36 -1155 -50 -96 -3 -220 -8 -275 -10 -139
-6 -549 -16 -1010 -25 -504 -9 -2357 -9 -2860 0 -504 9 -914 19 -1040 25 -55
3 -170 7 -255 10 -390 13 -1169 48 -1340 60 -41 3 -187 12 -325 20 -1436 86
-2664 233 -3320 396 -310 77 -551 181 -585 252 -11 21 -11 21 5 2 11 -14 20
-17 31 -10 16 10 16 32 0 27 -5 -2 -5 3 1 10 6 7 9 21 8 30 -2 10 1 20 6 24 5
3 7 10 3 15 -3 5 -11 6 -17 2 -7 -4 -6 1 2 10 11 14 16 15 29 5 11 -9 14 -9 9
-1 -4 6 -3 15 3 18 7 4 7 11 2 18 -5 7 -8 19 -7 28 2 9 -3 16 -11 16 -10 0
-11 -4 -3 -14 6 -7 8 -13 4 -13 -4 0 -2 -7 5 -15 11 -13 9 -15 -13 -13 -25 2
-25 3 -10 20 15 17 11 23 -11 19 -5 -1 -3 5 4 14 18 22 21 43 8 52 -6 3 -8 1
-5 -4 4 -6 0 -16 -7 -22 -10 -9 -16 -9 -21 -1 -4 6 -1 9 7 8 9 -2 13 8 12 29
0 18 3 30 8 27 4 -3 8 -11 8 -17 0 -16 48 -38 56 -26 3 5 11 6 17 3 7 -4 8 -3
4 2 -5 5 -12 9 -15 9 -4 0 -28 15 -54 33 -88 61 -107 106 -68 170 l20 32 1362
1 c750 0 1371 2 1382 4 10 2 15 0 10 -4 -5 -5 -83 -16 -174 -26 -263 -28 -526
-62 -538 -69 -6 -3 -14 -27 -18 -52 -5 -39 -3 -48 15 -66 21 -19 31 -20 194
-14 95 3 402 9 683 12 l511 6 -3 -55 c-2 -39 2 -59 12 -67 7 -7 11 -17 7 -23
-4 -7 19 -8 71 -3 83 7 122 19 146 42 63 62 105 94 123 94 12 0 135 -7 272
-15 138 -8 271 -15 297 -16 44 -3 46 -4 36 -23 -10 -20 -10 -20 8 -5 14 12 51
18 154 23 169 8 319 27 294 37 -11 5 7 8 45 8 53 1 62 3 52 15 -9 11 -7 15 8
19 17 4 19 11 14 48 -3 24 -11 49 -17 56 -9 10 -149 28 -496 63 -41 4 292 8
740 9 448 1 837 4 865 6 27 2 44 1 38 -3 -7 -5 -13 -39 -15 -82 l-3 -75 -135
-12 c-300 -28 -1057 -104 -1088 -109 -38 -7 -52 -28 -52 -78 0 -24 5 -36 14
-36 8 0 16 -5 18 -10 3 -11 241 -18 727 -19 310 -1 323 -2 308 -19 -9 -10 -19
-37 -23 -60 -6 -37 -3 -46 16 -64 20 -18 30 -20 94 -15 66 5 149 28 221 61 73
34 179 66 204 62 14 -2 39 -5 54 -5 27 -1 28 -3 23 -34 l-6 -32 16 33 c15 34
15 34 67 28 81 -10 347 -7 512 5 83 7 160 12 172 12 50 2 8 15 -68 21 -151 14
-71 18 123 7 231 -14 280 -19 273 -32 -11 -16 34 -10 55 8 21 19 26 57 11 96
-8 19 -19 25 -58 30 -367 45 -994 131 -1068 147 -27 5 -76 13 -107 16 l-58 5
3 74 2 73 97 7 c53 3 123 6 155 5 32 -1 529 -1 1106 -1 l1047 1 0 4130 0 4130
1610 0 1610 0 0 -4130z m-4932 1617 c65 9 85 7 88 -5 1 -7 0 -8 -3 -2 -2 5 -9
8 -14 4 -16 -9 1 -24 27 -24 26 0 31 9 12 28 -9 9 -7 12 10 12 l22 0 0 -434 0
-434 -120 0 c-72 0 -120 4 -120 10 0 6 11 7 25 4 30 -8 27 -61 27 459 0 338 3
424 15 389 2 -6 16 -9 31 -7z m6809 -22 c54 -23 35 -26 -27 -5 -33 11 -46 19
-32 19 12 1 39 -6 59 -14z m-6605 -26 c17 -9 18 -13 7 -20 -10 -6 -11 -9 -1
-9 7 0 12 -12 12 -29 0 -25 -3 -28 -27 -23 l-28 6 25 6 c17 4 21 8 12 14 -6 4
-17 4 -22 1 -6 -4 -9 8 -8 29 3 41 2 40 30 25z m-324 -403 l-3 -401 -137 -1
c-135 -1 -137 0 -133 20 3 12 12 62 19 111 14 88 14 89 16 35 3 -55 3 -55 10
20 11 112 32 488 25 455 -3 -11 -21 -155 -41 -320 -20 -165 -40 -305 -44 -310
-9 -11 -3578 -10 -3589 0 -13 13 -9 47 8 75 18 31 19 31 25 8 3 -13 6 -33 6
-45 0 -13 5 -23 11 -23 5 0 8 4 5 9 -7 11 20 34 44 38 9 1 30 8 46 14 16 7 31
13 34 13 3 1 11 5 19 10 9 6 12 5 8 -1 -4 -6 0 -14 9 -17 8 -3 12 -2 9 4 -3 6
-1 10 4 10 19 0 26 -5 23 -14 -2 -5 4 -3 13 4 24 20 53 22 86 6 l28 -14 -17
26 c-16 26 -16 27 3 11 33 -26 43 -30 51 -18 5 8 3 9 -7 4 -11 -6 -12 -5 -2 5
10 11 16 10 33 -5 11 -10 23 -15 27 -12 4 4 -2 14 -13 22 -23 17 -11 20 19 3
20 -10 21 -10 8 6 -13 15 -12 16 12 7 18 -7 28 -7 33 1 4 6 3 8 -3 5 -6 -4
-17 1 -24 11 -12 15 -12 16 2 5 9 -7 19 -10 23 -6 3 4 13 -2 21 -13 13 -18 14
-18 8 5 -5 21 -3 22 17 16 17 -6 21 -4 15 6 -5 8 2 5 15 -6 13 -11 20 -15 17
-8 -4 6 -3 14 3 18 5 3 10 1 10 -4 0 -6 5 -11 11 -11 5 0 7 5 4 10 -3 6 -1 10
4 10 6 0 11 -4 11 -10 0 -5 6 -7 14 -4 8 3 17 1 21 -5 3 -6 11 -11 17 -11 7 0
6 6 -2 15 -8 9 -9 15 -2 15 6 0 14 -4 17 -10 9 -15 48 -13 39 3 -4 6 3 3 15
-8 12 -11 22 -15 21 -10 -5 22 1 26 15 12 17 -17 59 -11 48 7 -5 8 -3 8 8 0 8
-6 23 -14 33 -18 16 -5 17 -4 6 9 -10 12 -10 15 3 15 9 0 18 -4 21 -9 9 -14
45 -20 53 -9 3 6 1 8 -5 4 -6 -3 -13 -2 -16 3 -7 11 13 9 34 -4 19 -12 66 -11
63 1 -1 6 7 11 18 11 10 1 19 -3 19 -8 0 -6 -5 -7 -12 -3 -7 5 -8 3 -4 -5 6
-10 12 -9 24 1 22 18 48 16 44 -2 -2 -10 3 -8 19 5 12 11 19 14 15 8 -9 -16
20 -18 29 -3 7 11 49 9 61 -3 11 -11 36 -8 29 3 -3 6 -2 10 4 10 5 0 12 -6 14
-12 4 -10 8 -10 15 1 7 9 11 10 17 2 5 -9 11 -9 23 1 12 10 14 10 8 1 -4 -8
-1 -13 9 -13 9 0 14 4 10 9 -3 6 4 8 17 5 41 -10 108 -12 113 -3 3 4 24 1 46
-7 37 -12 40 -12 29 1 -11 13 -10 14 6 9 10 -4 25 -12 32 -17 9 -7 16 -7 20
-1 4 5 18 9 32 9 14 -1 29 1 34 4 11 5 96 8 91 2 -2 -2 2 -9 8 -16 16 -17 31
-7 17 10 -10 12 -6 12 22 5 40 -12 41 -12 34 -1 -9 14 19 7 40 -9 11 -9 15
-10 10 -2 -8 14 -5 15 18 6 9 -3 13 -11 9 -17 -3 -6 -1 -7 5 -3 6 4 9 13 5 21
-6 17 12 21 22 5 5 -8 12 -7 23 2 9 7 13 8 10 3 -4 -6 4 -15 17 -21 19 -9 22
-8 18 6 -3 10 1 17 11 17 8 0 13 -4 10 -9 -8 -13 21 -9 35 5 7 6 12 8 11 2 -5
-24 1 -27 19 -11 12 11 21 14 26 7 9 -15 45 -14 45 2 0 9 3 8 9 -2 5 -8 16
-11 29 -7 12 4 32 2 44 -5 20 -11 21 -10 10 3 -10 13 -9 16 7 21 25 6 34 -2
21 -18 -8 -10 -1 -11 32 -5 25 5 48 4 54 -1 8 -6 17 -5 27 5 11 11 17 12 27 3
10 -10 11 -9 5 3 -8 13 -7 13 8 1 9 -7 17 -10 17 -6 0 5 10 0 22 -11 22 -18
22 -18 8 0 -14 18 -13 18 19 11 23 -5 31 -4 27 3 -7 11 15 9 55 -3 10 -4 19
-2 19 3 0 5 6 9 14 9 8 0 15 -3 14 -6 -2 -19 4 -22 18 -10 21 17 61 22 69 9 3
-5 11 -10 16 -10 6 0 7 5 4 10 -3 6 -2 10 4 10 5 0 12 -4 15 -9 4 -5 14 -8 24
-6 9 1 26 -5 37 -13 12 -10 15 -11 8 -2 -17 18 -17 38 -1 22 16 -16 31 -15 22
1 -4 6 2 4 13 -6 16 -14 22 -15 25 -5 4 11 8 11 20 0 11 -9 18 -10 23 -2 3 5
1 10 -6 10 -7 0 -9 3 -6 6 4 4 13 1 21 -5 10 -9 16 -9 21 -1 5 8 11 7 23 -2
12 -10 14 -10 8 0 -4 6 -3 12 3 12 5 0 12 -6 15 -12 4 -10 8 -10 11 -2 3 7 15
10 25 7 11 -3 18 -9 15 -13 -3 -5 4 -6 15 -3 11 3 17 10 13 17 -3 6 3 2 15 -8
20 -17 22 -18 22 -2 0 16 1 16 16 2 21 -21 30 -20 13 1 -11 13 -11 15 -1 9 7
-4 21 -5 30 -1 15 7 58 10 65 5 2 -2 43 -9 62 -11 6 -1 19 2 29 7 15 6 17 4
11 -7 -7 -11 -6 -12 6 -4 8 6 26 12 42 14 22 2 27 -2 27 -20 0 -86 36 141 75
476 9 72 18 139 20 151 4 20 11 21 145 21 l140 0 -2 -401z m7013 342 c16 -30
3 -20 -27 20 -23 30 -24 33 -5 17 13 -11 27 -28 32 -37z m-6953 -67 c-1 -59
-3 -69 -17 -64 -14 4 -15 3 0 -9 10 -9 16 -33 18 -75 2 -53 0 -63 -14 -63 -9
0 -13 -5 -10 -10 4 -6 11 -8 16 -5 5 4 9 -1 9 -9 0 -8 -8 -16 -17 -18 -16 -3
-16 -4 0 -20 22 -21 21 -25 -4 -31 -15 -4 -19 -2 -15 9 3 8 2 14 -2 14 -4 0
-8 29 -8 65 -1 47 3 65 12 65 7 0 16 5 20 12 5 8 2 9 -9 5 -22 -8 -22 2 1 20
16 13 16 14 0 9 -14 -4 -17 1 -14 29 1 19 0 35 -4 35 -8 0 -6 42 3 57 4 6 3
14 -2 18 -16 9 -1 35 19 35 16 0 19 -9 18 -69z m273 19 c5 0 9 -5 9 -11 0 -5
-6 -7 -12 -3 -10 6 -10 5 -1 -7 7 -8 11 -28 10 -44 -2 -21 -8 -29 -24 -30 -18
-1 -21 4 -21 29 0 17 5 37 11 44 6 8 6 12 -2 12 -6 0 -11 5 -11 11 0 6 7 8 16
5 9 -3 20 -6 25 -6z m-5 -137 c4 4 2 7 -5 7 -7 0 -9 5 -6 10 8 13 25 3 25 -16
0 -8 -9 -14 -21 -14 -11 0 -17 -5 -14 -10 4 -6 11 -8 16 -5 15 10 23 -26 11
-46 -9 -13 -8 -19 1 -22 9 -3 9 -9 0 -25 -10 -16 -10 -21 0 -25 9 -3 9 -7 -1
-19 -10 -13 -10 -17 0 -20 7 -3 1 -7 -14 -10 -25 -5 -27 -3 -25 26 2 17 6 37
10 44 5 7 3 12 -5 13 -10 0 -10 2 1 6 11 5 11 7 0 14 -10 6 -11 9 -1 9 6 0 12
5 12 11 0 5 -4 7 -10 4 -6 -4 -9 14 -9 45 1 43 3 48 14 33 8 -10 17 -15 21
-10z m-266 -212 c0 -11 -31 -24 -39 -16 -3 3 1 10 9 15 19 12 30 12 30 1z m0
-85 c0 -55 -3 -64 -20 -69 -11 -3 -20 -2 -21 1 -6 56 -2 108 9 119 25 24 32
13 32 -51z m0 -86 c0 -5 -5 -10 -12 -10 -9 0 -9 -3 0 -12 7 -7 12 -28 12 -48
0 -32 -3 -36 -22 -35 -19 1 -22 8 -23 46 0 24 3 50 8 57 11 14 37 16 37 2z
m-3100 -10 c0 -5 -2 -10 -4 -10 -3 0 -8 5 -11 10 -3 6 -1 10 4 10 6 0 11 -4
11 -10z m3390 -145 c0 -22 -4 -25 -35 -25 -31 0 -35 3 -35 25 0 22 4 25 35 25
31 0 35 -3 35 -25z m-1988 -881 c5 -3 6 -11 2 -17 -3 -7 1 -4 8 5 9 10 19 13
27 9 7 -5 28 -5 47 -1 19 4 36 4 39 -1 3 -4 12 -6 20 -2 9 3 23 -1 32 -8 12
-10 15 -10 9 -1 -9 15 18 16 47 1 l22 -12 -20 24 c-16 19 -16 21 -2 10 10 -8
31 -14 48 -13 16 0 27 -3 24 -8 -3 -4 4 -6 15 -3 11 3 23 9 26 14 3 5 14 4 25
-2 27 -14 61 -20 54 -10 -2 5 13 9 35 9 22 0 44 4 50 7 5 3 10 -2 10 -12 0
-10 3 -14 8 -8 4 6 18 11 32 11 34 1 68 9 76 17 4 4 16 0 26 -10 10 -9 18 -13
18 -8 0 4 8 1 17 -6 13 -11 15 -11 9 -1 -6 10 -3 13 11 10 11 -2 28 4 39 12
17 14 18 14 6 -2 -9 -11 -10 -18 -2 -23 5 -3 10 -2 10 4 0 5 20 8 45 6 42 -3
45 -2 33 13 -12 15 -11 16 5 3 9 -7 17 -10 17 -6 0 5 9 0 19 -9 14 -13 21 -14
27 -5 4 7 3 10 -3 6 -5 -3 -10 0 -10 8 0 20 13 19 21 -1 5 -13 9 -14 21 -4 10
9 15 9 15 1 0 -6 4 -11 10 -11 5 0 9 5 7 11 -1 6 6 13 16 14 14 3 16 0 7 -10
-8 -10 -8 -15 1 -21 8 -4 9 -3 5 4 -4 7 -1 12 9 12 9 0 14 4 11 8 -2 4 4 9 15
9 18 2 18 0 -3 -18 l-23 -19 30 11 c17 6 30 11 31 12 0 1 9 -5 19 -13 11 -9
16 -10 11 -2 -4 7 -2 12 8 12 8 0 18 -5 21 -10 4 -6 11 -8 16 -4 6 4 6 11 -2
20 -8 10 -8 14 0 14 6 0 11 -5 11 -11 0 -6 9 -9 20 -6 11 3 23 0 27 -5 3 -6 1
-8 -5 -4 -6 3 -13 2 -16 -2 -6 -11 34 -9 52 1 7 5 12 3 12 -5 0 -8 5 -6 11 5
6 9 15 15 20 12 5 -4 6 -12 2 -18 -5 -9 -3 -9 8 -1 20 15 59 24 59 13 0 -5 -5
-9 -12 -9 -6 0 -8 -3 -4 -7 4 -5 13 0 20 9 13 17 39 19 53 3 4 -4 2 -5 -4 -1
-7 4 -13 3 -13 -3 0 -5 9 -9 19 -8 11 0 17 5 15 9 -3 4 2 8 11 8 10 0 13 -5 9
-12 -6 -10 -5 -10 8 -1 8 7 18 10 22 6 11 -11 35 -12 42 -2 3 5 12 9 20 9 10
0 12 -5 8 -12 -6 -9 -3 -9 9 1 13 10 24 11 47 2 22 -7 29 -7 24 0 -4 8 4 9 26
4 26 -6 31 -4 25 6 -5 8 0 7 11 -3 12 -11 30 -15 49 -12 50 8 98 4 129 -11 40
-20 46 -18 16 5 -14 11 -20 20 -14 20 6 0 23 -9 38 -21 14 -11 26 -16 26 -10
0 6 5 11 10 11 6 0 9 -5 8 -11 -2 -6 3 -14 10 -16 8 -3 10 1 6 14 -6 15 -4 15
14 -3 14 -14 21 -37 23 -70 l3 -49 -1214 -5 c-804 -3 -1218 -2 -1222 5 -5 7
-11 7 -15 0 -5 -6 -34 -12 -65 -13 -53 -4 -57 -2 -60 20 -4 31 -43 33 -42 1 0
-12 -3 -20 -8 -17 -4 3 -8 14 -8 25 0 10 -7 19 -15 19 -9 0 -15 -9 -15 -25 0
-14 -4 -25 -10 -25 -5 0 -7 7 -3 15 3 9 -3 24 -13 33 -24 24 -64 7 -64 -25 0
-13 -4 -23 -9 -23 -4 0 -6 11 -3 25 2 15 0 25 -7 25 -6 0 -12 -8 -12 -17 -1
-17 -2 -17 -6 0 -2 9 -9 17 -15 17 -6 0 -8 -10 -4 -25 5 -20 3 -25 -14 -25
-15 0 -20 7 -20 25 0 18 -5 25 -20 25 -15 0 -20 -7 -20 -25 0 -14 -4 -25 -8
-25 -5 0 -8 10 -8 21 1 12 -5 24 -13 27 -10 3 -12 0 -8 -12 5 -11 3 -15 -5
-10 -8 5 -9 2 -5 -9 5 -12 1 -17 -13 -17 -13 0 -20 7 -20 20 0 11 -7 23 -16
27 -18 7 -35 -14 -27 -34 3 -7 0 -13 -6 -13 -6 0 -12 12 -12 28 l-2 27 -4 -27
c-5 -32 -17 -35 -40 -12 -13 12 -13 18 -4 24 9 5 8 9 -4 14 -14 5 -17 1 -13
-24 3 -22 0 -30 -10 -30 -10 0 -13 8 -10 25 4 18 1 25 -10 25 -10 0 -13 -7
-10 -25 3 -14 1 -25 -3 -25 -5 0 -9 11 -9 25 0 15 -6 25 -14 25 -14 0 -29 -27
-22 -39 6 -9 -337 -2 -346 7 -4 4 -1 14 5 23 14 18 93 70 104 67 5 0 21 4 36
10 16 7 33 12 38 12 5 0 9 5 9 10 0 6 8 10 18 8 9 -2 16 2 15 9 -2 8 6 9 30 2
40 -11 40 -11 31 4 -4 6 2 4 13 -6 14 -12 23 -15 28 -7 3 5 10 8 14 6 4 -3 27
-6 50 -7 23 -2 44 -6 47 -11 3 -4 16 -3 29 2 16 6 27 6 31 -1 4 -8 9 -7 14 2
7 10 12 10 25 -1 15 -12 18 -12 26 2 9 17 59 13 59 -4 0 -7 5 -6 13 1 8 6 16
9 18 7 10 -10 59 -14 53 -5 -6 11 41 7 52 -4 4 -4 14 -2 21 5 11 9 19 9 34 0
10 -7 19 -8 19 -3 0 12 152 11 168 -2 10 -8 12 -7 10 3 -2 11 11 14 52 15 40
0 54 4 52 13 -1 8 2 11 8 7 6 -3 7 -11 4 -17 -5 -7 -2 -8 6 -3 7 4 16 2 22 -6
7 -10 8 -8 5 9 -5 22 -4 23 12 8 20 -19 31 -20 31 -5 0 5 -5 7 -12 3 -7 -5 -8
-3 -4 5 6 9 12 9 25 -3 12 -11 20 -13 28 -5 8 8 13 8 17 0 4 -6 12 -11 17 -11
6 0 7 5 4 10 -8 13 6 14 118 6 16 -1 30 1 33 6 3 4 16 3 29 -2 16 -6 27 -6 31
2 4 6 3 8 -4 4 -6 -3 -13 -2 -17 3 -5 10 40 5 57 -5z m332 8 c3 -5 -1 -9 -9
-9 -8 0 -15 4 -15 9 0 4 4 8 9 8 6 0 12 -4 15 -8z m-2390 -84 c-5 -7 -2 -9 9
-5 12 4 17 -3 22 -34 4 -22 5 -42 3 -44 -3 -3 -176 -8 -205 -6 -17 1 -16 51 2
75 13 17 14 16 23 -15 8 -31 9 -32 16 -12 4 11 14 24 23 27 13 6 14 4 3 -9
-12 -15 -10 -15 16 -4 16 7 34 17 41 22 7 5 17 6 22 3 5 -4 12 -2 16 4 3 5 8
10 11 10 3 0 2 -5 -2 -12z m1341 -73 c0 -14 -6 -25 -12 -25 -7 0 -13 9 -13 19
0 11 6 22 13 24 6 3 12 6 12 6 0 1 0 -10 0 -24z m-259 -10 c1 -8 -2 -15 -7
-15 -5 0 -9 10 -9 22 0 23 12 17 16 -7z m124 5 c0 -11 -4 -20 -10 -20 -5 0
-10 9 -10 20 0 11 5 20 10 20 6 0 10 -9 10 -20z m266 -5 c1 -8 -2 -15 -7 -15
-5 0 -9 10 -9 22 0 23 12 17 16 -7z m-943 -1852 c-7 -2 -19 -2 -25 0 -7 3 -2
5 12 5 14 0 19 -2 13 -5z m62 -12 c-9 -8 -36 -10 -30 -2 2 4 11 8 20 8 8 0 13
-3 10 -6z m52 -7 c-3 -3 -12 -4 -19 -1 -8 3 -5 6 6 6 11 1 17 -2 13 -5z m140
-30 c-3 -3 -12 -4 -19 -1 -8 3 -5 6 6 6 11 1 17 -2 13 -5z m47 -13 c4 -5 -3
-7 -14 -4 -23 6 -26 13 -6 13 8 0 17 -4 20 -9z m73 -17 c-3 -3 -12 -4 -19 -1
-8 3 -5 6 6 6 11 1 17 -2 13 -5z m108 -31 c11 -6 27 -8 35 -5 16 5 15 3 -15
-18 -11 -8 -17 -10 -13 -6 5 5 -2 15 -15 21 -18 10 -26 9 -41 -4 -12 -10 -16
-11 -12 -3 5 8 1 19 -10 27 -17 12 -15 13 16 6 20 -4 44 -12 55 -18z m120 -35
c5 4 5 2 1 -5 -8 -14 -36 -6 -36 9 0 7 5 6 13 -1 8 -6 18 -7 22 -3z m35 -12
c0 -3 -4 -8 -10 -11 -5 -3 -10 -1 -10 4 0 6 5 11 10 11 6 0 10 -2 10 -4z m70
-28 c10 -6 7 -7 -10 -2 -14 3 -32 11 -40 16 -10 6 -7 7 10 2 14 -3 32 -11 40
-16z m140 -60 c0 -5 4 -7 9 -4 5 3 26 -2 47 -11 30 -13 35 -18 20 -21 -10 -2
-22 1 -25 7 -4 6 -16 12 -26 14 -31 6 -72 25 -79 36 -5 7 3 7 24 0 16 -6 30
-15 30 -21z m165 -68 c3 -5 2 -10 -4 -10 -5 0 -13 5 -16 10 -3 6 -2 10 4 10 5
0 13 -4 16 -10z m61 -35 c10 -8 15 -14 9 -14 -5 0 -19 6 -29 14 -11 8 -15 15
-10 15 6 0 19 -7 30 -15z m45 -32 c13 -16 12 -17 -3 -4 -10 7 -18 15 -18 17 0
8 8 3 21 -13z m45 -35 c14 -17 15 -20 2 -9 -9 7 -22 10 -27 6 -7 -3 -8 0 -5 9
8 20 7 20 30 -6z m49 -38 c3 -5 2 -10 -4 -10 -5 0 -13 5 -16 10 -3 6 -2 10 4
10 5 0 13 -4 16 -10z m-1117 -367 c-15 -2 -42 -2 -60 0 -18 2 -6 4 27 4 33 0
48 -2 33 -4z m59 1 c-3 -3 -12 -4 -19 -1 -8 3 -5 6 6 6 11 1 17 -2 13 -5z m40
0 c-3 -3 -12 -4 -19 -1 -8 3 -5 6 6 6 11 1 17 -2 13 -5z m186 -1 c-23 -2 -64
-2 -90 0 -26 2 -7 3 42 3 50 0 71 -1 48 -3z m84 -6 c6 -4 14 -3 18 3 4 6 12 7
18 3 7 -4 41 -7 75 -6 35 1 73 -2 85 -7 14 -5 -9 -8 -65 -6 -48 1 -90 5 -94 9
-4 4 -13 2 -20 -4 -8 -7 -14 -7 -19 1 -5 8 -11 8 -19 1 -9 -8 -13 -7 -13 3 0
14 14 16 34 3z m266 -14 c-33 -4 -42 -16 -23 -28 6 -3 10 -1 10 5 0 7 8 9 20
5 12 -4 27 -2 35 5 10 8 15 8 21 -1 4 -7 3 -9 -4 -5 -18 11 -23 -11 -5 -25 14
-11 15 -11 9 -1 -6 11 -1 13 25 11 19 -2 39 -6 44 -10 6 -4 21 -9 35 -12 18
-3 15 -5 -13 -6 -21 0 -36 -5 -33 -10 7 -10 -20 -9 -30 2 -13 12 -36 8 -28 -5
5 -10 3 -10 -7 0 -8 7 -14 17 -14 23 0 5 -4 9 -10 10 -5 0 -15 5 -22 10 -7 7
-14 6 -18 -1 -5 -8 -11 -7 -23 2 -13 11 -15 10 -10 -7 4 -17 0 -21 -25 -23
l-30 -3 24 20 c13 11 20 20 16 21 -4 0 -2 7 5 15 7 8 28 14 48 13 l35 -1 -32
-4z m-136 -17 c4 -4 1 -6 -7 -4 -8 2 -14 -3 -12 -9 1 -7 -2 -12 -7 -10 -5 1
-9 -2 -10 -8 0 -5 15 -9 34 -8 26 1 36 -3 40 -18 4 -11 10 -17 15 -14 4 3 10
-1 13 -9 4 -10 0 -12 -15 -8 -14 3 -19 1 -14 -6 3 -6 1 -14 -6 -18 -7 -4 -10
-4 -6 1 10 10 -11 37 -23 29 -5 -3 -9 0 -9 5 0 15 13 14 29 -1 10 -11 12 -9 9
7 -2 14 -11 20 -28 20 -32 1 -52 -19 -43 -41 6 -16 5 -17 -9 -4 -11 10 -13 19
-7 27 7 7 6 14 -1 18 -5 3 -10 2 -10 -3 0 -15 -23 -20 -45 -11 -19 8 -19 9 2
6 12 -1 22 3 22 8 -1 6 -6 9 -12 7 -6 -2 -5 4 3 12 7 9 18 16 24 16 6 0 5 -4
-3 -9 -8 -5 -9 -11 -3 -15 5 -3 17 3 27 14 17 19 17 20 -1 21 -18 0 -18 1 1 8
23 9 41 8 52 -3z m279 2 c3 -5 10 -5 16 -2 7 4 8 2 4 -4 -4 -7 -1 -12 9 -12
10 0 13 5 9 11 -5 8 0 10 17 6 13 -3 43 -9 66 -13 24 -3 40 -10 38 -14 -3 -5
3 -6 13 -3 11 2 37 -3 58 -13 21 -9 45 -16 52 -15 6 1 12 -2 12 -6 0 -5 9 -9
20 -10 23 -2 71 -33 51 -33 -11 0 -11 -3 0 -17 12 -16 12 -17 -2 -6 -9 7 -20
9 -25 5 -4 -4 -2 1 5 10 11 15 11 19 -2 24 -29 11 -52 11 -64 1 -13 -9 -14 -8
-17 16 -1 6 -11 11 -23 11 -13 -1 -20 3 -17 7 3 5 -2 9 -11 9 -9 0 -13 -4 -10
-10 3 -5 -1 -10 -10 -10 -9 0 -14 4 -11 8 2 4 -7 9 -21 10 -21 2 -24 -1 -20
-19 4 -15 2 -18 -7 -10 -7 6 -17 7 -21 3 -5 -4 -4 0 1 8 10 18 14 40 7 40 -3
0 -13 -10 -22 -22 -14 -17 -18 -18 -18 -5 0 9 4 14 9 11 4 -3 8 3 8 12 0 10
-3 14 -7 11 -3 -4 -12 -2 -19 4 -8 7 -14 7 -19 -1 -9 -14 -56 -13 -52 2 1 8
-10 13 -30 12 -18 0 -33 3 -33 8 0 10 60 7 66 -4z m-799 -15 c0 -9 -4 -10 -14
-2 -7 6 -13 12 -13 14 0 1 6 2 13 2 8 0 14 -6 14 -14z m143 11 c0 -8 -19 -13
-24 -6 -3 5 1 9 9 9 8 0 15 -2 15 -3z m187 -2 c11 9 13 8 11 -3 -2 -8 2 -13 8
-12 6 1 11 -5 11 -13 0 -7 -7 -14 -14 -14 -8 0 -12 -4 -9 -8 2 -4 -5 -9 -16
-9 -21 -2 -21 -2 1 13 19 14 21 41 1 29 -4 -3 -14 3 -21 13 -11 14 -11 15 1 5
10 -10 17 -10 27 -1z m-133 -30 c3 -5 -1 -9 -9 -9 -8 0 -12 4 -9 9 3 4 7 8 9
8 2 0 6 -4 9 -8z m482 -35 c0 -21 -4 -34 -12 -34 -7 0 -11 4 -8 9 3 4 -1 8 -9
8 -7 0 -14 7 -14 15 0 8 4 15 9 15 4 0 8 7 8 15 0 30 25 3 26 -28z m-548 24
c2 -1 0 -6 -3 -11 -5 -8 -11 -8 -19 -1 -8 7 -16 7 -23 0 -6 -6 -10 -5 -10 4 0
11 31 16 55 8z m172 4 c0 -2 -6 -8 -13 -14 -10 -8 -14 -7 -14 2 0 8 6 14 14
14 7 0 13 -1 13 -2z m-366 -13 c3 -5 -1 -9 -9 -9 -8 0 -12 4 -9 9 3 4 7 8 9 8
2 0 6 -4 9 -8z m120 -22 c2 -3 -17 -6 -42 -7 -31 -1 -40 1 -27 6 20 8 61 9 69
1z m147 -23 c-10 -9 -11 -8 -5 6 3 10 9 15 12 12 3 -3 0 -11 -7 -18z m796 1
c-3 -8 -6 -5 -6 6 -1 11 2 17 5 13 3 -3 4 -12 1 -19z m43 16 c0 -8 -19 -13
-24 -6 -3 5 1 9 9 9 8 0 15 -2 15 -3z m-760 -26 c0 -4 -4 -8 -9 -8 -6 0 -12 4
-15 8 -3 5 1 9 9 9 8 0 15 -4 15 -9z m2585 -203 c194 -14 397 -49 505 -85 159
-53 304 -141 336 -201 11 -23 12 -29 2 -23 -7 5 -19 9 -26 10 -8 2 -17 6 -20
10 -4 4 1 4 11 1 9 -4 17 -2 17 3 0 6 -9 10 -21 10 -11 0 -18 4 -14 9 3 5 1
12 -4 15 -5 4 -13 1 -17 -5 -5 -8 -3 -9 6 -4 9 5 11 4 6 -4 -4 -6 -11 -9 -16
-6 -5 3 -11 1 -15 -5 -8 -13 -25 -3 -25 13 0 8 3 8 9 -2 6 -9 11 -10 15 -2 4
6 2 11 -4 11 -6 0 -9 4 -6 8 3 5 -1 9 -9 9 -8 0 -12 -4 -10 -8 3 -3 -3 -13
-12 -20 -9 -8 -14 -9 -10 -3 9 16 -18 25 -32 11 -6 -6 -11 -7 -11 -3 0 5 -8 2
-17 -5 -17 -13 -17 -13 -3 5 14 18 13 19 -2 13 -10 -3 -20 -2 -24 4 -8 13 16
40 29 32 6 -3 7 -1 3 6 -6 8 -12 9 -20 2 -7 -6 -15 -9 -18 -6 -3 3 -11 -2 -19
-12 -12 -15 -12 -16 1 -8 8 4 12 4 7 0 -14 -16 -33 -13 -35 6 -4 42 -6 47 -21
44 -9 -1 -15 -9 -13 -16 1 -8 -4 -6 -13 5 -8 10 -12 23 -9 27 10 17 -3 9 -22
-13 -16 -19 -16 -20 -1 -9 15 12 17 11 14 -10 -2 -13 -8 -23 -13 -22 -5 1 -16
-4 -24 -10 -12 -10 -13 -9 -4 3 6 8 10 26 9 40 -1 14 3 32 9 40 6 8 -2 4 -17
-9 -15 -14 -27 -21 -27 -17 0 4 -6 4 -12 -1 -20 -12 -38 -12 -38 0 0 18 -21
-7 -24 -29 -2 -11 -11 -19 -23 -19 -11 0 -27 -6 -36 -13 -10 -9 -17 -10 -22
-2 -4 6 -1 9 6 8 6 -2 13 2 16 9 5 13 -15 12 -37 -2 -26 -17 -41 -15 -31 4 6
10 5 23 0 34 -10 17 -29 15 -29 -4 0 -6 4 -8 8 -5 5 3 9 -1 9 -9 0 -8 -3 -13
-5 -10 -3 3 -13 -2 -23 -11 -16 -15 -19 -14 -30 5 -11 16 -16 18 -29 8 -12 -9
-13 -9 -2 3 14 16 16 34 3 25 -5 -3 -12 -1 -15 4 -4 5 2 8 11 7 9 -2 19 -8 21
-14 2 -7 8 -10 13 -7 5 4 6 -1 3 -9 -4 -9 0 -14 10 -12 19 3 34 16 17 16 -7 0
-9 5 -6 10 4 6 3 10 -2 9 -27 -5 -35 1 -23 16 7 8 16 13 20 10 5 -3 11 -1 14
4 8 13 -19 8 -37 -7 -13 -11 -18 -9 -32 10 -10 13 -15 16 -12 6 3 -9 0 -21 -6
-26 -19 -15 -81 -10 -94 7 -7 9 -13 12 -13 7 0 -5 -8 -2 -17 5 -16 13 -17 12
-4 -3 7 -10 18 -15 24 -11 6 4 8 0 4 -10 -4 -11 -1 -15 13 -12 13 3 18 -2 17
-15 0 -9 -6 -17 -12 -15 -24 5 -45 18 -40 25 3 4 -3 11 -13 15 -30 14 -39 13
-39 -1 0 -10 4 -11 13 -3 16 13 26 -3 17 -27 -4 -11 -3 -15 4 -11 6 4 16 0 22
-7 20 -24 -16 -13 -39 11 -16 17 -44 23 -57 13 -2 -2 -11 -3 -20 -4 -27 -2
-44 -16 -36 -29 5 -8 2 -8 -9 1 -12 10 -18 9 -28 -3 -14 -17 -32 -11 -24 9 3
8 0 17 -7 22 -7 4 -10 3 -5 -4 3 -6 1 -14 -6 -18 -7 -4 -10 -4 -6 1 4 4 0 13
-9 20 -11 8 -13 14 -5 19 7 4 12 2 12 -5 0 -7 9 -6 25 5 l25 17 -5 -33 -5 -33
20 25 c17 21 19 22 14 5 -5 -19 -5 -19 9 -3 8 10 23 16 36 13 12 -2 19 0 16 6
-4 5 -11 6 -17 3 -8 -5 -9 -1 -4 11 6 18 6 18 -11 3 -14 -13 -22 -14 -38 -5
-31 18 -88 15 -103 -6 -16 -20 -36 -12 -28 12 5 14 4 13 -8 -1 -14 -18 -32
-25 -22 -9 4 5 -1 8 -11 7 -19 -3 -26 -43 -7 -43 7 0 10 6 7 14 -3 8 0 11 9 8
21 -8 18 -34 -3 -30 -10 2 -21 -1 -24 -6 -4 -5 -11 -7 -16 -3 -6 4 -5 11 2 20
10 13 8 14 -14 10 -19 -3 -30 1 -37 14 -5 10 -18 17 -27 15 -10 -1 -29 7 -43
19 -24 20 -24 20 -7 0 9 -11 14 -24 10 -29 -5 -4 -3 -5 4 -1 6 3 14 2 17 -3 5
-7 -11 -8 -31 -2 -2 1 -5 0 -6 -1 -2 -2 -12 4 -23 12 -10 8 -16 10 -12 6 4 -5
2 -16 -5 -24 -10 -13 -9 -14 3 -7 21 13 41 15 34 4 -3 -5 -9 -7 -14 -4 -5 3
-12 0 -15 -5 -5 -8 -12 -7 -23 3 -10 8 -25 13 -35 12 -14 -3 -17 1 -12 13 5
13 4 14 -6 5 -10 -10 -9 -15 0 -27 7 -9 17 -14 21 -13 4 1 8 -1 9 -5 1 -5 -1
-7 -2 -5 -2 1 -12 -5 -23 -13 -10 -8 -16 -11 -12 -6 14 16 -11 44 -39 44 -15
0 -29 5 -31 11 -3 8 -8 6 -17 -5 -13 -18 -50 -30 -39 -13 3 5 10 6 16 3 7 -4
8 -2 4 4 -5 8 -15 8 -34 1 -15 -6 -29 -11 -32 -11 -3 0 -4 -3 -3 -8 1 -4 -17
-4 -40 1 -26 4 -47 3 -54 -3 -9 -7 -14 -6 -19 5 -3 9 -12 18 -20 21 -11 4 -12
2 -2 -14 11 -16 9 -23 -6 -37 -18 -17 -18 -17 -7 4 8 17 8 22 -5 27 -10 4 -13
2 -8 -7 6 -9 4 -9 -7 -1 -8 6 -22 10 -32 9 -15 -3 -16 -1 -6 11 6 7 16 11 22
7 6 -3 7 -1 3 6 -6 9 -11 9 -21 1 -8 -7 -18 -9 -24 -6 -5 3 -11 -1 -15 -9 -6
-15 28 -40 43 -31 4 3 8 -1 8 -8 0 -11 -6 -12 -26 -3 -14 6 -28 14 -31 18 -10
11 -46 23 -78 24 -28 2 -31 0 -20 -14 11 -14 11 -14 -3 -4 -9 7 -18 10 -22 7
-9 -9 -47 6 -47 19 0 8 3 8 12 -1 7 -7 19 -12 27 -12 33 0 -9 24 -46 26 -29 2
-33 0 -18 -6 11 -5 14 -9 7 -9 -8 -1 -27 8 -43 20 -26 18 -30 19 -45 5 -18
-18 -34 -21 -34 -5 0 5 4 8 9 4 5 -3 12 -2 15 3 2 4 -8 8 -23 7 -20 0 -27 -4
-23 -14 3 -9 1 -12 -6 -7 -6 3 -13 2 -17 -4 -4 -6 -11 -8 -16 -4 -6 4 -6 11 1
19 13 16 -5 16 -30 0 -8 -5 -35 -10 -60 -11 -74 -3 -122 -13 -160 -35 -19 -11
-28 -14 -20 -6 28 27 150 86 230 111 166 53 390 85 705 102 398 21 582 23 770
9z m445 -180 c-6 -8 -9 -18 -6 -23 3 -5 -10 -8 -30 -7 -23 1 -33 -3 -30 -10 2
-6 -1 -12 -8 -12 -23 0 -11 42 12 43 12 1 24 3 27 4 3 1 9 3 14 4 5 0 13 4 17
9 13 13 17 7 4 -8z m-722 -12 c1 -10 2 -26 3 -36 0 -9 4 -15 9 -12 5 3 11 2
14 -3 2 -4 -6 -8 -19 -8 -16 0 -21 4 -17 15 3 9 1 12 -6 7 -8 -5 -10 -1 -5 10
4 11 2 15 -4 11 -6 -4 -17 1 -24 11 -12 15 -12 16 2 4 13 -10 19 -9 29 3 16
19 16 19 18 -2z m370 -6 c-8 -15 -12 -17 -18 -6 -11 16 -5 26 14 26 12 0 13
-5 4 -20z m439 -16 c17 17 24 -6 8 -27 -15 -18 -15 -18 -9 1 6 20 5 20 -10 1
-9 -11 -17 -16 -17 -10 -7 52 -6 58 6 41 8 -11 15 -13 22 -6z m-1227 -2 c0 -8
5 -8 15 1 8 7 15 11 16 9 7 -35 6 -39 -4 -31 -7 5 -20 8 -29 7 -9 -2 -22 3
-29 11 -9 11 -7 14 10 14 11 0 21 -5 21 -11z m-190 -9 c0 -5 -4 -10 -10 -10
-5 0 -10 5 -10 10 0 6 5 10 10 10 6 0 10 -4 10 -10z m443 -4 c9 1 15 -1 12 -6
-3 -5 -13 -7 -23 -5 -9 1 -22 -2 -28 -6 -7 -6 -16 -3 -25 8 -13 16 -12 17 3 4
15 -11 19 -11 24 4 4 9 10 12 13 7 3 -5 14 -8 24 -6z m-422 -19 c-10 -9 -11
-8 -5 6 3 10 9 15 12 12 3 -3 0 -11 -7 -18z m128 1 l14 -23 -24 20 c-13 11
-26 21 -28 22 -2 2 2 3 10 3 8 0 20 -10 28 -22z m383 -7 c-4 -10 -7 -11 -10
-3 -2 7 -9 9 -14 6 -6 -4 -8 -3 -5 3 10 16 36 11 29 -6z m-537 -9 c-3 -3 -11
0 -18 7 -9 10 -8 11 6 5 10 -3 15 -9 12 -12z m1679 -38 c3 -8 2 -12 -4 -9 -6
3 -10 10 -10 16 0 14 7 11 14 -7z m-4154 -732 c68 -9 -199 -20 -680 -26 l-325
-5 325 19 c179 10 357 21 395 23 79 5 204 0 285 -11z m1548 -19 c-21 -2 -57
-2 -80 0 -24 2 -7 4 37 4 44 0 63 -2 43 -4z m-2691 -19 c-3 -3 -12 -4 -19 -1
-8 3 -5 6 6 6 11 1 17 -2 13 -5z m60 0 c-3 -3 -12 -4 -19 -1 -8 3 -5 6 6 6 11
1 17 -2 13 -5z m60 0 c-3 -3 -12 -4 -19 -1 -8 3 -5 6 6 6 11 1 17 -2 13 -5z
m3563 -173 c23 -6 -48 -9 -205 -8 -132 0 -220 3 -195 7 70 10 361 11 400 1z
m-512 -8 c-32 -2 -86 -2 -120 0 -35 2 -9 3 57 3 66 0 94 -1 63 -3z m857 -51
c-18 -15 -245 -108 -230 -93 6 4 41 29 80 55 57 37 78 46 114 46 25 0 41 -4
36 -8z m7544 -256 c9 -11 7 -13 -11 -12 -14 0 -22 -4 -20 -11 1 -7 -5 -13 -14
-13 -14 0 -14 -3 -4 -15 11 -13 15 -13 21 -3 6 8 9 9 9 2 0 -12 -24 -36 -31
-30 -2 1 -17 -11 -34 -27 -16 -17 -25 -27 -19 -24 7 4 11 -2 10 -16 -1 -17 4
-21 19 -19 11 2 25 8 32 13 15 13 9 45 -8 41 -8 -2 -10 0 -6 5 5 4 13 9 18 9
5 1 10 2 12 4 1 1 9 3 18 5 11 2 15 -4 15 -21 -2 -24 -12 -39 -27 -39 -5 0 -9
-4 -8 -10 1 -5 6 -9 12 -7 6 2 5 -4 -3 -12 -14 -17 -45 -22 -35 -6 3 6 0 10
-9 10 -15 0 -16 -16 -3 -37 6 -9 16 -8 41 6 25 14 33 16 33 5 0 -7 -3 -13 -6
-12 -25 2 -41 -4 -35 -14 5 -8 0 -9 -15 -5 -17 4 -20 2 -12 -7 8 -10 4 -12
-17 -12 -15 1 -27 -3 -27 -9 0 -5 12 -10 27 -9 15 0 25 -3 22 -8 -3 -4 2 -8
11 -8 9 0 14 4 10 9 -3 5 1 16 9 24 8 8 13 17 11 21 -3 3 -2 4 2 1 9 -7 13
-35 5 -34 -21 3 -23 -3 -8 -20 12 -13 14 -21 6 -26 -5 -3 -7 -11 -4 -17 4 -6
2 -8 -4 -4 -6 3 -14 2 -17 -4 -5 -8 -11 -8 -20 0 -8 7 -15 7 -19 1 -8 -12 -39
-8 -43 6 -2 6 3 13 12 17 9 3 13 2 10 -4 -3 -6 1 -10 10 -10 9 0 13 5 10 11
-4 6 2 5 13 -2 17 -11 23 -10 38 6 19 18 18 18 -3 13 -13 -4 -27 0 -34 8 -9
11 -15 11 -25 3 -8 -6 -14 -8 -14 -4 0 5 -10 0 -22 -11 -12 -10 -19 -14 -15
-8 3 6 0 11 -8 11 -8 0 -12 -8 -9 -20 3 -19 3 -19 -16 -2 -19 17 -19 20 -4 36
9 10 20 16 25 14 10 -7 24 15 24 36 0 9 9 26 19 38 17 19 17 21 3 21 -10 0
-16 3 -14 8 1 4 -2 8 -8 10 -5 1 -10 -6 -10 -15 0 -31 -15 -46 -31 -32 -20 16
-6 33 14 17 14 -10 15 -10 5 2 -10 11 -9 17 4 32 15 17 15 18 0 18 -10 0 -16
-6 -14 -12 1 -7 -5 -12 -13 -10 -8 2 -12 0 -8 -4 10 -10 -11 -34 -29 -34 -10
0 -4 12 18 38 31 36 69 66 55 44 -3 -6 -2 -13 4 -17 5 -3 10 1 10 9 0 9 7 16
16 16 8 0 12 5 9 10 -4 6 -12 7 -18 3 -7 -4 -6 1 2 10 8 10 16 15 19 12 3 -3
11 0 19 6 10 9 11 15 1 26 -9 11 -8 13 2 11 8 -2 14 4 15 12 0 8 5 15 12 15 6
0 15 3 19 8 10 9 10 9 23 -7z m-102 -3 c-4 -3 -2 -12 5 -20 6 -8 7 -13 2 -11
-11 4 -59 -39 -59 -53 0 -5 -4 -8 -10 -6 -5 1 -9 6 -7 11 2 5 -5 3 -14 -5 -16
-13 -17 -12 -12 8 4 13 0 27 -9 34 -8 8 -13 8 -11 2 2 -6 -1 -12 -7 -12 -5 -1
-10 10 -11 24 -1 21 1 23 14 12 13 -10 14 -9 8 1 -6 10 3 12 43 9 28 -3 54 -1
57 4 3 5 8 9 11 9 4 0 3 -3 0 -7z m190 -9 c-3 -3 -12 -4 -19 -1 -8 3 -5 6 6 6
11 1 17 -2 13 -5z m-17 -54 c0 -4 -6 -12 -13 -18 -10 -9 -13 -6 -13 12 0 16 5
22 13 19 7 -3 13 -9 13 -13z m-277 -10 c-8 -30 -28 -43 -42 -26 -9 10 -7 17 6
27 15 12 16 12 9 -1 -6 -10 -3 -10 10 3 23 21 23 21 17 -3z m277 -34 c0 -2 -8
-10 -17 -17 -16 -13 -17 -12 -4 4 13 16 21 21 21 13z m-3 -71 c0 -8 -10 -24
-22 -35 -17 -16 -22 -17 -22 -6 0 8 4 13 8 10 7 -4 22 13 25 29 3 14 4 17 7
17 2 0 4 -7 4 -15z m-350 -10 c0 -8 -4 -12 -9 -9 -5 3 -6 10 -3 15 9 13 12 11
12 -6z m73 -59 c-5 -5 -16 -6 -26 -2 -16 6 -15 8 2 27 17 19 19 19 25 2 4 -10
3 -22 -1 -27z m320 -60 c0 -2 -8 -10 -17 -17 -16 -13 -17 -12 -4 4 13 16 21
21 21 13z m393 -3 c-7 -2 -21 -2 -30 0 -10 3 -4 5 12 5 17 0 24 -2 18 -5z
m-106 -9 c-3 -3 -12 -4 -19 -1 -8 3 -5 6 6 6 11 1 17 -2 13 -5z m-68 -8 c-2
-2 -44 -6 -94 -9 -53 -3 -73 -2 -50 3 42 8 151 13 144 6z m-231 -23 c-16 -2
-40 -2 -55 0 -16 2 -3 4 27 4 30 0 43 -2 28 -4z"/>
<path d="M10266 9473 c-3 -4 -6 -1803 -6 -4000 l0 -3993 1340 0 1340 0 0 3995
0 3995 -742 1 c-409 0 -1009 2 -1335 4 -325 2 -594 1 -597 -2z m2664 -3993 l0
-3980 -1330 0 -1330 0 0 3978 c0 2188 2 3981 4 3983 2 2 601 3 1330 1 l1326
-2 0 -3980z"/>
<path d="M10661 9064 c0 -11 3 -14 6 -6 3 7 2 16 -1 19 -3 4 -6 -2 -5 -13z"/>
<path d="M10698 9073 c12 -2 30 -2 40 0 9 3 -1 5 -23 4 -22 0 -30 -2 -17 -4z"/>
<path d="M10808 9073 c7 -3 16 -2 19 1 4 3 -2 6 -13 5 -11 0 -14 -3 -6 -6z"/>
<path d="M10848 9073 c7 -3 16 -2 19 1 4 3 -2 6 -13 5 -11 0 -14 -3 -6 -6z"/>
<path d="M10701 8998 c2 -31 2 -31 6 -6 l4 28 897 3 897 2 -902 3 -903 2 1
-32z"/>
<path d="M10405 4806 c0 -19 6 -41 13 -48 7 -7 12 -8 12 -3 0 4 9 0 20 -10 17
-15 20 -16 20 -3 0 20 24 26 115 27 41 0 116 0 165 1 l90 0 0 30 0 30 -159 0
c-87 0 -185 3 -217 6 l-59 6 0 -36z"/>
<path d="M2340 1140 c-9 -6 -10 -10 -3 -10 6 0 15 5 18 10 8 12 4 12 -15 0z"/>
<path d="M1695 1110 c-3 -6 1 -7 9 -4 18 7 21 14 7 14 -6 0 -13 -4 -16 -10z"/>
<path d="M1313 1068 c-11 -18 -12 -58 -1 -64 5 -3 2 -15 -8 -25 -9 -11 -15
-20 -13 -22 2 -1 14 -10 26 -20 14 -12 23 -15 28 -7 3 6 1 9 -6 8 -15 -3 -21
100 -7 119 5 6 5 14 -1 17 -5 4 -13 1 -18 -6z m4 -103 c0 -8 -4 -12 -9 -9 -5
3 -6 10 -3 15 9 13 12 11 12 -6z"/>
<path d="M3269 1023 c-13 -16 -12 -17 4 -4 16 13 21 21 13 21 -2 0 -10 -8 -17
-17z"/>
<path d="M3189 963 c-13 -16 -12 -17 4 -4 16 13 21 21 13 21 -2 0 -10 -8 -17
-17z"/>
<path d="M14409 743 c-12 -16 -12 -17 1 -7 8 6 46 12 85 13 95 3 97 11 3 11
-60 0 -78 -4 -89 -17z"/>
<path d="M14310 746 c0 -9 37 -12 55 -5 15 6 11 8 -17 8 -21 1 -38 -1 -38 -3z"/>
<path d="M14116 732 c-2 -4 12 -6 32 -4 62 6 69 10 20 11 -26 0 -49 -3 -52 -7z"/>
<path d="M14570 732 c0 -14 37 -21 48 -10 6 6 12 6 16 -1 4 -6 13 -11 19 -11
7 0 3 6 -8 12 -26 16 -75 22 -75 10z"/>
<path d="M13941 726 c2 -3 30 -7 62 -10 32 -3 64 -9 70 -13 7 -4 6 0 -2 10
-10 13 -29 17 -74 17 -33 0 -58 -2 -56 -4z"/>
<path d="M13700 710 c-19 -4 -30 -8 -25 -9 6 0 -5 -10 -22 -21 -49 -29 -40
-32 20 -6 28 13 63 28 77 34 21 9 22 11 5 10 -11 0 -36 -4 -55 -8z"/>
<path d="M13803 713 c15 -2 37 -2 50 0 12 2 0 4 -28 4 -27 0 -38 -2 -22 -4z"/>
<path d="M13888 713 c7 -3 16 -2 19 1 4 3 -2 6 -13 5 -11 0 -14 -3 -6 -6z"/>
<path d="M14503 705 c0 -10 4 -12 12 -5 17 14 27 0 13 -19 -10 -13 -10 -14 2
-4 23 21 21 43 -4 43 -13 0 -23 -6 -23 -15z"/>
<path d="M14180 700 c20 -13 33 -13 25 0 -3 6 -14 10 -23 10 -15 0 -15 -2 -2
-10z"/>
<path d="M14488 673 c7 -3 16 -2 19 1 4 3 -2 6 -13 5 -11 0 -14 -3 -6 -6z"/>
<path d="M12737 659 c7 -7 15 -10 18 -7 3 3 -2 9 -12 12 -14 6 -15 5 -6 -5z"/>
<path d="M14709 643 c-13 -16 -12 -17 4 -4 16 13 21 21 13 21 -2 0 -10 -8 -17
-17z"/>
<path d="M11828 633 c7 -3 16 -2 19 1 4 3 -2 6 -13 5 -11 0 -14 -3 -6 -6z"/>
<path d="M11868 633 c7 -3 16 -2 19 1 4 3 -2 6 -13 5 -11 0 -14 -3 -6 -6z"/>
<path d="M11920 633 c14 -3 32 -10 40 -16 13 -11 13 -10 1 6 -7 9 -25 16 -40
16 l-26 -2 25 -4z"/>
<path d="M13579 623 c-13 -17 -13 -17 6 -3 11 8 22 16 24 17 2 2 0 3 -6 3 -6
0 -17 -8 -24 -17z"/>
<path d="M14224 618 l-19 -23 23 19 c21 18 27 26 19 26 -2 0 -12 -10 -23 -22z"/>
<path d="M14480 615 c-12 -13 -26 -22 -31 -20 -4 3 -10 1 -13 -4 -10 -15 22
-6 42 12 10 9 21 15 24 12 2 -3 5 2 5 10 0 19 1 19 -27 -10z"/>
<path d="M14520 633 c0 -6 7 -14 16 -17 10 -4 14 -14 11 -25 -4 -16 -1 -16 19
-7 13 6 24 17 24 25 0 11 -3 11 -17 0 -15 -12 -16 -12 -8 1 4 8 4 12 0 7 -5
-4 -17 0 -27 10 -10 9 -18 11 -18 6z"/>
<path d="M14650 625 c-7 -8 -17 -12 -24 -8 -6 4 -5 -1 3 -10 14 -18 26 -23 16
-8 -3 5 -1 12 4 15 5 4 12 -2 14 -11 3 -10 4 -6 4 10 -2 32 -1 31 -17 12z"/>
<path d="M14763 623 c0 -9 4 -10 14 -2 7 6 13 12 13 14 0 1 -6 2 -13 2 -8 0
-14 -6 -14 -14z"/>
<path d="M11545 620 c-7 -12 2 -12 30 0 19 8 19 9 -2 9 -12 1 -25 -3 -28 -9z"/>
<path d="M12218 623 c7 -3 16 -2 19 1 4 3 -2 6 -13 5 -11 0 -14 -3 -6 -6z"/>
<path d="M12563 623 c9 -2 23 -2 30 0 6 3 -1 5 -18 5 -16 0 -22 -2 -12 -5z"/>
<path d="M12968 623 c7 -3 16 -2 19 1 4 3 -2 6 -13 5 -11 0 -14 -3 -6 -6z"/>
<path d="M11995 610 c27 -12 43 -12 25 0 -8 5 -22 9 -30 9 -10 0 -8 -3 5 -9z"/>
<path d="M12090 616 c0 -2 7 -6 15 -10 8 -3 15 -1 15 4 0 6 -7 10 -15 10 -8 0
-15 -2 -15 -4z"/>
<path d="M13413 586 c-17 -6 -35 -14 -39 -19 -10 -10 59 3 70 14 16 15 2 17
-31 5z"/>
<path d="M13140 570 c0 -5 5 -10 11 -10 5 0 7 5 4 10 -3 6 -8 10 -11 10 -2 0
-4 -4 -4 -10z"/>
<path d="M14557 566 c-3 -7 0 -13 6 -13 7 0 21 -1 32 -2 19 -2 19 -2 2 -15
-16 -12 -16 -14 -2 -20 9 -3 14 -2 11 3 -3 5 1 15 10 22 14 11 13 14 -8 25
-30 17 -45 17 -51 0z"/>
<path d="M11225 510 c-13 -6 -15 -9 -5 -9 8 0 22 4 30 9 18 12 2 12 -25 0z"/>
<path d="M14406 508 c3 -5 10 -6 15 -3 13 9 11 12 -6 12 -8 0 -12 -4 -9 -9z"/>
<path d="M14668 507 c9 -11 10 -21 4 -34 -6 -10 -10 -21 -11 -25 -1 -5 -6 -8
-13 -7 -9 0 -9 -3 0 -14 7 -8 9 -17 5 -20 -3 -4 1 -7 10 -7 10 0 17 7 17 17 0
15 2 15 19 -1 13 -12 21 -14 26 -6 4 6 1 9 -7 8 -7 -2 -12 3 -10 10 1 8 -2 11
-7 8 -5 -3 -14 1 -21 9 -11 14 -7 19 13 16 17 -3 5 35 -15 48 -21 13 -22 13
-10 -2z"/>
<path d="M14516 465 c-3 -8 -1 -15 4 -15 6 0 10 5 10 10 0 6 4 10 9 10 6 0 8
-9 6 -20 -2 -11 0 -18 6 -15 12 8 12 -1 -1 -24 -8 -15 -5 -18 13 -17 15 1 22
8 23 23 1 12 -4 21 -10 20 -6 -1 -10 8 -10 21 1 17 -4 22 -21 22 -13 0 -25 -7
-29 -15z"/>
<path d="M14149 448 c27 -30 35 -35 28 -15 -2 6 3 18 12 25 13 10 12 11 -10 3
-18 -7 -31 -6 -40 2 -8 7 -3 0 10 -15z"/>
<path d="M14262 415 c-1 -12 5 -28 13 -35 10 -8 15 -9 15 -2 0 6 -5 14 -11 17
-6 4 -8 13 -5 21 3 7 2 15 -2 18 -4 2 -9 -6 -10 -19z"/>
<path d="M14490 431 c0 -6 4 -12 8 -15 5 -3 9 1 9 9 0 8 -4 15 -9 15 -4 0 -8
-4 -8 -9z"/>
<path d="M14462 400 c-13 -21 -6 -26 15 -12 7 4 9 13 5 19 -6 9 -11 6 -20 -7z"/>
<path d="M14176 395 c6 -16 42 -30 51 -21 4 3 -1 6 -11 6 -10 0 -14 5 -10 12
4 7 3 8 -4 4 -7 -4 -12 -2 -12 3 0 6 -4 11 -10 11 -5 0 -7 -7 -4 -15z"/>
<path d="M13144 392 c3 -6 22 -19 42 -31 31 -19 35 -19 32 -4 -2 9 -6 16 -11
15 -4 -2 -21 5 -38 14 -17 8 -28 11 -25 6z"/>
<path d="M14145 370 c-16 -7 -17 -9 -3 -9 9 -1 20 4 23 9 7 11 7 11 -20 0z"/>
<path d="M13800 350 c0 -5 5 -10 11 -10 5 0 7 5 4 10 -3 6 -8 10 -11 10 -2 0
-4 -4 -4 -10z"/>
<path d="M13170 341 c0 -5 5 -13 10 -16 6 -3 10 -2 10 4 0 5 -4 13 -10 16 -5
3 -10 2 -10 -4z"/>
<path d="M13110 331 c0 -6 4 -13 10 -16 6 -3 7 1 4 9 -7 18 -14 21 -14 7z"/>
<path d="M13688 333 c7 -3 16 -2 19 1 4 3 -2 6 -13 5 -11 0 -14 -3 -6 -6z"/>
<path d="M8056 6988 c-3 -29 -8 -114 -11 -188 -3 -74 -7 -171 -9 -215 -3 -59
-2 -68 3 -35 7 41 8 38 9 -34 1 -44 4 -77 7 -74 7 6 17 598 11 598 -3 0 -7
-24 -10 -52z"/>
<path d="M7877 6634 c-3 -3 -3 -12 -1 -19 3 -7 1 -16 -5 -20 -17 -10 -13 -25
7 -25 13 0 14 2 3 9 -8 5 -9 11 -3 15 6 3 10 15 9 26 -1 22 -1 22 -10 14z"/>
<path d="M7828 6593 c7 -3 16 -2 19 1 4 3 -2 6 -13 5 -11 0 -14 -3 -6 -6z"/>
<path d="M5500 6536 c0 -2 9 -6 20 -9 11 -3 18 -1 14 4 -5 9 -34 13 -34 5z"/>
<path d="M7048 6533 c7 -3 16 -2 19 1 4 3 -2 6 -13 5 -11 0 -14 -3 -6 -6z"/>
<path d="M7850 6506 c0 -2 8 -10 18 -17 15 -13 16 -12 3 4 -13 16 -21 21 -21
13z"/>
<path d="M7840 6476 c0 -2 7 -7 16 -10 8 -3 12 -2 9 4 -6 10 -25 14 -25 6z"/>
<path d="M7912 6450 c0 -14 2 -19 5 -12 2 6 2 18 0 25 -3 6 -5 1 -5 -13z"/>
<path d="M8021 6404 c0 -11 3 -14 6 -6 3 7 2 16 -1 19 -3 4 -6 -2 -5 -13z"/>
<path d="M8190 7049 c0 -5 5 -7 10 -4 6 3 10 8 10 11 0 2 -4 4 -10 4 -5 0 -10
-5 -10 -11z"/>
<path d="M8466 7031 c-4 -5 -2 -12 3 -15 5 -4 12 -2 15 3 4 5 2 12 -3 15 -5 4
-12 2 -15 -3z"/>
<path d="M8190 6494 c0 -8 5 -12 10 -9 6 3 10 10 10 16 0 5 -4 9 -10 9 -5 0
-10 -7 -10 -16z"/>
<path d="M7160 5510 c0 -5 5 -10 11 -10 5 0 7 5 4 10 -3 6 -8 10 -11 10 -2 0
-4 -4 -4 -10z"/>
<path d="M6060 5390 c0 -5 5 -10 10 -10 6 0 10 5 10 10 0 6 -4 10 -10 10 -5 0
-10 -4 -10 -10z"/>
<path d="M7515 2190 c-4 -6 -12 -7 -18 -3 -7 4 -6 0 2 -10 7 -9 18 -14 24 -10
6 4 8 0 4 -10 -9 -24 0 -21 13 3 8 16 8 20 -2 18 -7 -2 -12 3 -10 10 3 15 -4
16 -13 2z"/>
<path d="M7999 2183 c-13 -16 -12 -17 4 -4 16 13 21 21 13 21 -2 0 -10 -8 -17
-17z"/>
<path d="M8189 2193 c-2 -12 -6 -28 -8 -33 -1 -3 -4 -16 -7 -29 -4 -20 -2 -22
11 -11 12 10 13 15 4 20 -8 6 -8 9 0 14 6 4 14 1 17 -7 3 -8 13 -14 22 -12 9
1 19 -2 22 -6 3 -5 11 1 19 12 9 15 9 19 0 14 -7 -5 -10 -3 -7 6 3 8 11 13 18
11 11 -3 11 0 0 13 -9 11 -16 12 -26 4 -7 -6 -12 -14 -11 -17 1 -4 -2 -7 -8
-7 -5 0 -9 4 -7 9 2 5 -4 4 -12 -4 -16 -12 -21 -5 -17 23 0 4 -1 7 -4 7 -3 0
-6 -3 -6 -7z"/>
<path d="M7020 2179 c0 -5 5 -7 10 -4 6 3 10 8 10 11 0 2 -4 4 -10 4 -5 0 -10
-5 -10 -11z"/>
<path d="M6984 2165 c8 -8 18 -15 22 -15 3 0 1 7 -6 15 -7 8 -17 15 -22 15 -5
0 -3 -7 6 -15z"/>
<path d="M7826 2162 c-3 -5 1 -9 9 -9 8 0 12 4 9 9 -3 4 -7 8 -9 8 -2 0 -6 -4
-9 -8z"/>
<path d="M8513 2151 c0 -11 5 -18 9 -15 4 3 5 11 1 19 -7 21 -12 19 -10 -4z"/>
<path d="M6840 2151 c0 -5 7 -11 15 -15 9 -3 15 0 15 9 0 8 -7 15 -15 15 -8 0
-15 -4 -15 -9z"/>
<path d="M7080 2156 c0 -2 7 -9 15 -16 13 -11 14 -10 9 4 -5 14 -24 23 -24 12z"/>
<path d="M8585 2110 c-2 -3 0 -12 4 -19 6 -9 10 -10 15 -2 4 6 11 9 16 6 4 -3
14 3 21 13 13 15 12 16 -3 3 -10 -7 -18 -9 -18 -4 0 11 -29 13 -35 3z"/>
<path d="M14930 705 c-7 -8 -17 -12 -23 -8 -6 4 -7 1 -3 -6 6 -9 12 -9 25 3
10 9 21 13 26 9 4 -5 5 -2 1 5 -9 15 -11 15 -26 -3z"/>
<path d="M14976 651 c-4 -5 -2 -12 3 -15 5 -4 12 -2 15 3 4 5 2 12 -3 15 -5 4
-12 2 -15 -3z"/>
<path d="M14902 569 c2 -8 -2 -13 -8 -12 -6 1 -11 -4 -11 -11 0 -16 22 -15 38
1 7 7 5 14 -6 23 -14 11 -16 11 -13 -1z"/>
<path d="M14865 500 c-3 -5 -1 -10 4 -10 6 0 11 5 11 10 0 6 -2 10 -4 10 -3 0
-8 -4 -11 -10z"/>
<path d="M14812 743 c6 -7 14 -11 18 -8 5 3 11 1 14 -4 4 -5 -2 -11 -11 -13
-11 -2 -14 -6 -7 -10 6 -4 23 5 37 20 l26 28 -44 0 c-34 0 -41 -3 -33 -13z
m58 1 c0 -8 -19 -13 -24 -6 -3 5 1 9 9 9 8 0 15 -2 15 -3z"/>
</g>
</svg>
